<svg width="248" height="69" viewBox="0 0 248 69" fill="none" xmlns="http://www.w3.org/2000/svg">
<g clip-path="url(#clip0_1_596)">
<path d="M119.553 24.7251C116.975 22.5187 113.692 21.3122 110.301 21.3251C108.926 21.3251 107.45 21.3251 105.549 21.3251H99.4207V47.675H110.149C112.582 47.6788 114.981 47.0957 117.142 45.975C119.002 44.9937 120.593 43.571 121.777 41.8314C122.96 40.0918 123.7 38.0883 123.932 35.996C124.2 33.9005 123.94 31.7712 123.175 29.8023C122.41 27.8335 121.164 26.088 119.553 24.7251ZM117.414 40.637C116.746 41.9958 115.722 43.1471 114.451 43.9677C113.181 44.7882 111.711 45.247 110.2 45.295C109.588 45.295 108.757 45.295 107.721 45.295H104.819H104.462V23.5691H106.601C108.146 23.5691 109.283 23.5691 109.996 23.5691C111.855 23.5748 113.661 24.1917 115.136 25.3249C116.611 26.4582 117.674 28.0452 118.161 29.8421C118.797 31.5937 119.059 33.4595 118.93 35.3189C118.802 37.1783 118.285 38.99 117.414 40.637ZM167.031 23.6371H181.069C179.202 26.5951 167.184 45.737 166.725 46.383C166.605 46.544 166.524 46.7307 166.489 46.9284C166.454 47.1262 166.465 47.3294 166.522 47.522V47.692H187.4V45.346H172.87L175.28 41.504C179.286 35.1631 186.721 23.3821 187.163 22.5661C187.282 22.3675 187.362 22.1484 187.4 21.9201C187.4 21.8181 187.4 21.7161 187.4 21.6311L187.502 21.2911H167.031V23.6371ZM245.59 21.3421V39.6L235.948 28.8731L229.396 21.6141C229.343 21.5214 229.27 21.4424 229.182 21.3833C229.093 21.3243 228.992 21.2868 228.886 21.2741H225.984V47.641H228.428V27.7001L233.877 33.7181L246.082 47.318C246.225 47.4981 246.421 47.6289 246.642 47.692H248.034V21.2911L245.59 21.3421ZM202.219 35.469H213.083V33.1231H202.219V23.5691H216.071V21.2911H197.212V47.641H216.41V45.346H202.219V35.469ZM154.69 23.7391C152.248 21.8931 149.262 20.9124 146.203 20.9511C145.477 20.954 144.751 20.9994 144.03 21.0871C140.733 21.4502 137.689 23.0307 135.492 25.52C133.295 28.0094 132.103 31.2291 132.148 34.5511C132.108 36.2662 132.411 37.972 133.037 39.5687C133.664 41.1654 134.602 42.6209 135.797 43.85C137.076 45.1852 138.609 46.2495 140.306 46.9796C142.003 47.7097 143.83 48.0907 145.677 48.1C147.514 48.0813 149.337 47.7656 151.075 47.165C153.724 46.2995 156.023 44.5979 157.626 42.3148C159.23 40.0318 160.052 37.2901 159.969 34.5001C160.027 32.4031 159.575 30.3236 158.652 28.4402C157.73 26.5569 156.364 24.9261 154.673 23.6881L154.69 23.7391ZM153.23 41.436C152.576 42.7662 151.556 43.8812 150.29 44.6494C149.023 45.4175 147.564 45.8067 146.084 45.771C144.609 45.8121 143.153 45.4328 141.885 44.6774C140.617 43.9221 139.589 42.8216 138.921 41.504C137.912 39.6439 137.365 37.5683 137.325 35.452C137.129 32.9524 137.567 30.4437 138.598 28.1591C139.125 26.8796 139.981 25.7624 141.078 24.9205C142.175 24.0786 143.474 23.542 144.845 23.3651C145.272 23.3029 145.703 23.2745 146.135 23.2801C147.793 23.2561 149.416 23.7511 150.78 24.6958C152.143 25.6406 153.178 26.988 153.74 28.5501C154.517 30.4823 154.893 32.5533 154.843 34.636C154.906 37.0007 154.363 39.342 153.264 41.436H153.23Z" fill="#F1EFDB"/>
<path d="M21.9482 26.34V0.925049L49.583 16.837V42.66L36.1221 34.5V18.962L35.3922 18.554L21.9482 26.34Z" fill="#007960"/>
<path d="M45.4072 13.59L50.3129 16.412L49.583 16.837L21.9482 0.925L22.6782 0.5L44.6773 13.165L58.0703 5.413L58.8003 5.838L45.4072 13.59Z" fill="#006B4C"/>
<path d="M58.8002 31.2189V5.83789L45.4072 13.5899L50.3129 16.4119L49.583 16.8369V42.6599L50.3129 42.2349V26.3229L58.8002 31.2189Z" fill="#008C72"/>
<path d="M50.313 26.323L72.2443 38.988L44.6604 54.968L22.6952 42.269L36.1222 34.5L49.5831 42.66L50.313 42.235V26.323Z" fill="#00604E"/>
<path d="M72.2443 38.988V39.838L50.313 52.537V68.075L49.5831 68.5V52.962L44.6604 55.818V54.968L72.2443 38.988Z" fill="#008C72"/>
<path d="M22.6952 42.269V43.119L44.6604 55.818V54.9L22.6952 42.269ZM44.6604 55.869L36.1731 50.922L27.6857 55.886L49.7528 68.551V52.962L44.6604 55.869Z" fill="#007960"/>
<path d="M36.1221 50.8709L14.1738 63.5869V31.6779L36.1221 18.9619V34.4999L22.6951 42.2689V43.1189L36.1221 50.8709Z" fill="#008C72"/>
<path d="M35.3922 18.5371L13.4439 31.2531L14.1739 31.6781L36.1221 18.9791L35.3922 18.5371ZM21.9483 16.4121L0 29.1621L13.4439 36.9311V31.2531L21.9313 26.3401L21.9483 16.4121Z" fill="#00604E"/>
<path d="M14.1739 31.6781V63.5871L13.4439 63.1621V37.7811L0 30.0121V29.1621L13.4439 36.9311V31.2531L14.1739 31.6781Z" fill="#007960"/>
<path d="M21.9482 19.523V26.34L35.3922 18.554L21.9482 19.523Z" fill="#005244"/>
<path d="M22.6952 43.1189L27.5669 55.8349L36.1222 50.8709L22.6952 43.1189Z" fill="#005244"/>
</g>
<defs>
<clipPath id="clip0_1_596">
<rect width="248" height="68" fill="white" transform="translate(0 0.5)"/>
</clipPath>
</defs>
</svg>
