<svg width="142" height="45" viewBox="0 0 142 45" fill="none" xmlns="http://www.w3.org/2000/svg">
<g clip-path="url(#clip0_1_631)">
<path fill-rule="evenodd" clip-rule="evenodd" d="M11.0071 44.5H14.3103V26.9H11.0071V44.5ZM23.1157 44.236H26.0742V33.1315L38.5275 44.5V27.164H35.5772V38.0788L23.1157 26.9V44.236ZM45.2815 39.9735C46.8917 41.2248 48.8246 41.948 50.8967 41.948C52.915 41.948 54.3309 41.255 54.3309 39.7246C54.3309 38.3909 53.4278 37.8684 51.8465 37.284L49.2864 36.3971C46.9262 35.5611 45.1312 34.3401 45.1312 31.5337C45.1312 28.5321 47.8485 26.9 51.0979 26.9C53.0887 26.9 54.903 27.3991 56.3202 28.2832V31.2601C54.8465 30.1739 53.2335 29.4259 51.1614 29.4259C49.3774 29.4259 48.0443 30.09 48.0443 31.4746C48.0443 32.7259 48.8811 33.2264 50.3549 33.7296L53.2073 34.7279C55.9714 35.6973 57.2398 37.2001 57.2398 39.6724C57.2398 42.7826 54.4963 44.5 50.8967 44.5C48.5309 44.5 46.5195 43.84 45.2815 43.0067V39.9735ZM64.9464 44.5H68.2482V26.9H64.9464V44.5ZM83.7386 41.8366C87.461 41.8366 89.4504 39.4551 89.4504 35.6959C89.4504 31.9091 87.4596 29.5359 83.7386 29.5359H80.0577V41.8366H83.7386ZM77.0522 26.9H83.8489C89.0809 26.9 92.4641 30.3375 92.4641 35.6959C92.4641 41.0584 89.0809 44.5 83.8489 44.5H77.0522V26.9ZM108.977 26.9V29.5359H100.985V33.7709H108.153V36.3765H100.984V41.8366H108.977V44.5H97.969V26.9H108.977ZM120.699 34.8695H123.976C125.915 34.8695 127.009 33.808 127.009 32.1759C127.009 30.5438 125.915 29.4809 123.976 29.4809H120.699V34.8709V34.8695ZM120.699 37.3582V44.5H117.783V26.9H124.031C127.593 26.9 129.898 28.7301 129.898 32.1759C129.898 35.1225 128.619 36.8151 125.893 37.2496L132.093 44.5H128.776L122.773 37.3596H120.7L120.699 37.3582ZM9.85315 9.56125C11.1449 9.08963 12.1513 7.67475 12.1513 5.72913C12.1513 2.48687 9.85315 0.806625 6.17631 0.806625H0V18.9058H6.74983C10.4267 18.9058 12.7249 17.1073 12.7249 13.7179C12.7249 11.8011 11.5185 10.1209 9.85315 9.56125ZM2.90066 8.41175V3.46038H6.14874C8.18913 3.46038 9.27963 4.19737 9.27963 5.9065C9.27963 7.61562 8.18775 8.41175 6.14874 8.41175H2.90066ZM2.90066 10.9473H6.69192C8.70474 10.9473 9.79524 11.9483 9.79524 13.5996C9.79524 15.2208 8.70336 16.2534 6.6933 16.2534H2.90204V10.9459L2.90066 10.9473ZM26.2011 19.2C30.4238 19.2 33.268 16.6645 33.268 11.7131V0.806625H30.2805V11.3584C30.2805 14.8371 28.8439 16.4596 26.2011 16.4596C23.5582 16.4596 22.123 14.8371 22.123 11.3584V0.806625H19.1355V11.6829C19.1355 16.6645 22.0072 19.2 26.2011 19.2ZM40.3018 17.6077C41.5371 18.4932 43.5485 19.2 45.9032 19.2C49.4946 19.2 52.2229 17.3713 52.2229 14.0712C52.2229 11.4478 50.9601 9.8555 48.2014 8.82425L45.3587 7.76275C43.8932 7.23338 43.0605 6.70262 43.0605 5.37575C43.0605 3.90175 44.3812 3.195 46.1624 3.195C48.2304 3.195 49.8392 3.98975 51.3047 5.14062V1.985C49.8971 1.04313 48.087 0.512375 46.1045 0.512375C42.8592 0.512375 40.1584 2.25175 40.1584 5.43488C40.1584 8.41175 41.9396 9.70837 44.2943 10.5925L46.8517 11.5358C48.4317 12.1545 49.3223 12.7155 49.3223 14.1304C49.3223 15.7515 47.9147 16.4885 45.9032 16.4885C43.8353 16.4885 41.9107 15.7212 40.3018 14.3958V17.6077ZM62.8977 0.806625H59.9116V18.9044H62.8977V0.806625ZM71.4205 18.8824H74.2991V7.10825L86.4146 19.1629V0.779125H83.5443V12.3525L71.4205 0.5V18.8824ZM105.083 0.81075V3.52087H97.3265V7.87687H104.282V10.5568H97.3265V16.1709H105.083V18.9099H94.3983V0.81075H105.083ZM112.038 17.5954C113.273 18.4809 115.283 19.1876 117.639 19.1876C121.229 19.1876 123.959 17.3603 123.959 14.0589C123.959 11.4354 122.695 9.8445 119.938 8.81188L117.093 7.75175C115.628 7.221 114.795 6.69025 114.795 5.36337C114.795 3.88937 116.116 3.18263 117.897 3.18263C119.965 3.18263 121.574 3.97875 123.04 5.12825V1.974C121.632 1.03075 119.822 0.5 117.839 0.5C114.594 0.5 111.893 2.23937 111.893 5.4225C111.893 8.39937 113.674 9.696 116.029 10.5801L118.587 11.5234C120.166 12.1421 121.057 12.7031 121.057 14.118C121.057 15.7391 119.651 16.4761 117.638 16.4761C115.57 16.4761 113.645 15.7102 112.038 14.3834V17.5954ZM130.079 17.5954C131.314 18.4809 133.326 19.1876 135.68 19.1876C139.272 19.1876 142 17.3603 142 14.0589C142 11.4354 140.736 9.8445 137.979 8.81188L135.134 7.75175C133.67 7.221 132.836 6.69025 132.836 5.36337C132.836 3.88937 134.158 3.18263 135.938 3.18263C138.006 3.18263 139.616 3.97875 141.08 5.12825V1.974C139.674 1.03075 137.864 0.5 135.882 0.5C132.635 0.5 129.936 2.23937 129.936 5.4225C129.936 8.39937 131.717 9.696 134.071 10.5801L136.629 11.5234C138.209 12.1421 139.099 12.7031 139.099 14.118C139.099 15.7391 137.692 16.4761 135.68 16.4761C133.612 16.4761 131.688 15.7102 130.079 14.3834V17.5954Z" fill="#8C8CA2"/>
</g>
<defs>
<clipPath id="clip0_1_631">
<rect width="142" height="44" fill="white" transform="translate(0 0.5)"/>
</clipPath>
</defs>
</svg>
