<svg width="271" height="288" viewBox="0 0 271 288" fill="none" xmlns="http://www.w3.org/2000/svg">
<g filter="url(#filter0_d_4548_87)">
<rect x="145" y="45.5312" width="102.171" height="102.171" rx="51.0854" transform="rotate(-7.04504 145 45.5312)" fill="url(#paint0_linear_4548_87)"/>
<g clip-path="url(#clip0_4548_87)">
<path d="M190.105 85.9943C190.28 85.762 190.54 85.6069 190.832 85.5708L217.307 82.299C217.791 82.2392 218.108 82.8146 217.81 83.2114L213.25 89.2795C213.075 89.5118 212.815 89.6668 212.523 89.7029L186.048 92.9748C185.564 93.0346 185.247 92.4592 185.545 92.0624L190.105 85.9943Z" fill="url(#paint1_linear_4548_87)"/>
<path d="M187.604 65.7513C187.786 65.518 188.047 65.363 188.33 65.3279L214.806 62.056C215.289 61.9962 215.606 62.5717 215.308 62.9685L210.748 69.0366C210.573 69.2688 210.313 69.4239 210.021 69.46L183.546 72.7319C183.062 72.7916 182.745 72.2162 183.044 71.8194L187.604 65.7513Z" fill="url(#paint2_linear_4548_87)"/>
<path d="M211.243 73.0402C211.017 72.8574 210.727 72.7703 210.435 72.8064L183.96 76.0783C183.476 76.1381 183.309 76.7733 183.694 77.0855L189.594 81.861C189.82 82.0438 190.111 82.1308 190.402 82.0947L216.878 78.8229C217.361 78.7631 217.529 78.1279 217.143 77.8156L211.243 73.0402Z" fill="url(#paint3_linear_4548_87)"/>
</g>
<path d="M186.819 116.009C186.693 115.483 186.393 115.1 185.921 114.861C185.448 114.618 184.881 114.537 184.219 114.619C183.746 114.677 183.345 114.803 183.018 114.996C182.69 115.186 182.447 115.422 182.287 115.705C182.13 115.984 182.072 116.287 182.113 116.614C182.147 116.888 182.24 117.117 182.392 117.301C182.549 117.484 182.74 117.63 182.968 117.739C183.198 117.844 183.441 117.927 183.697 117.987C183.952 118.043 184.195 118.085 184.428 118.114L185.592 118.268C185.972 118.312 186.364 118.388 186.771 118.494C187.177 118.601 187.561 118.759 187.923 118.97C188.285 119.181 188.59 119.46 188.839 119.807C189.092 120.154 189.251 120.587 189.315 121.105C189.396 121.759 189.298 122.361 189.023 122.91C188.751 123.459 188.313 123.92 187.711 124.292C187.111 124.664 186.361 124.905 185.459 125.017C184.594 125.124 183.829 125.079 183.163 124.883C182.498 124.686 181.956 124.358 181.536 123.899C181.116 123.435 180.845 122.858 180.721 122.167L182.469 121.951C182.555 122.364 182.733 122.695 183.004 122.944C183.279 123.189 183.61 123.356 183.999 123.445C184.391 123.531 184.811 123.545 185.258 123.49C185.751 123.429 186.179 123.298 186.544 123.097C186.911 122.891 187.189 122.635 187.376 122.33C187.563 122.02 187.634 121.678 187.587 121.302C187.545 120.96 187.413 120.692 187.19 120.498C186.971 120.303 186.688 120.155 186.339 120.053C185.995 119.951 185.609 119.871 185.182 119.813L183.771 119.609C182.815 119.472 182.036 119.192 181.435 118.77C180.837 118.348 180.488 117.734 180.389 116.93C180.306 116.265 180.415 115.661 180.715 115.121C181.014 114.58 181.455 114.134 182.038 113.783C182.62 113.429 183.298 113.204 184.073 113.108C184.855 113.012 185.561 113.064 186.193 113.264C186.829 113.464 187.349 113.784 187.754 114.222C188.159 114.657 188.407 115.183 188.499 115.802L186.819 116.009ZM195.326 123.78C194.514 123.881 193.782 123.782 193.131 123.485C192.48 123.187 191.946 122.725 191.528 122.097C191.111 121.469 190.847 120.708 190.737 119.813C190.626 118.915 190.696 118.108 190.947 117.394C191.199 116.68 191.604 116.099 192.163 115.652C192.722 115.205 193.408 114.932 194.22 114.831C195.032 114.731 195.764 114.83 196.415 115.127C197.066 115.424 197.601 115.889 198.018 116.52C198.436 117.152 198.701 117.917 198.812 118.815C198.922 119.71 198.851 120.513 198.6 121.223C198.348 121.934 197.942 122.512 197.383 122.959C196.824 123.406 196.138 123.68 195.326 123.78ZM195.157 122.364C195.683 122.299 196.102 122.106 196.413 121.785C196.725 121.464 196.935 121.062 197.043 120.58C197.155 120.096 197.177 119.577 197.108 119.02C197.04 118.468 196.892 117.97 196.666 117.529C196.443 117.083 196.141 116.741 195.76 116.502C195.38 116.262 194.926 116.175 194.4 116.24C193.87 116.306 193.447 116.501 193.133 116.826C192.822 117.151 192.61 117.557 192.499 118.044C192.391 118.527 192.371 119.045 192.439 119.597C192.508 120.154 192.653 120.653 192.876 121.095C193.102 121.536 193.405 121.875 193.786 122.11C194.17 122.345 194.627 122.43 195.157 122.364ZM201.483 111.117L202.91 122.666L201.224 122.874L199.797 111.325L201.483 111.117ZM207.722 122.266C207.174 122.333 206.665 122.293 206.196 122.145C205.727 121.993 205.339 121.738 205.031 121.379C204.727 121.019 204.54 120.556 204.47 119.988C204.409 119.499 204.454 119.086 204.603 118.747C204.751 118.408 204.974 118.126 205.271 117.903C205.568 117.679 205.908 117.496 206.291 117.353C206.674 117.21 207.067 117.089 207.471 116.989C207.983 116.865 208.398 116.764 208.716 116.687C209.034 116.605 209.261 116.511 209.397 116.402C209.532 116.294 209.587 116.138 209.562 115.935L209.557 115.896C209.496 115.403 209.31 115.039 208.999 114.803C208.691 114.566 208.264 114.481 207.719 114.549C207.151 114.619 206.72 114.8 206.424 115.092C206.131 115.38 205.942 115.684 205.855 116.004L204.226 115.839C204.349 115.289 204.571 114.831 204.892 114.463C205.216 114.091 205.606 113.802 206.061 113.597C206.517 113.388 207.005 113.251 207.528 113.187C207.874 113.144 208.245 113.14 208.643 113.175C209.044 113.206 209.426 113.307 209.791 113.48C210.16 113.652 210.478 113.923 210.745 114.295C211.012 114.663 211.184 115.162 211.262 115.794L211.973 121.546L210.326 121.749L210.18 120.565L210.112 120.573C210.03 120.805 209.893 121.039 209.701 121.277C209.509 121.514 209.251 121.724 208.926 121.905C208.601 122.086 208.2 122.207 207.722 122.266ZM207.922 120.867C208.388 120.809 208.775 120.668 209.083 120.443C209.395 120.217 209.619 119.945 209.755 119.627C209.895 119.304 209.943 118.972 209.901 118.63L209.763 117.513C209.71 117.581 209.601 117.652 209.434 117.726C209.271 117.796 209.083 117.863 208.869 117.927C208.656 117.988 208.447 118.046 208.244 118.102C208.041 118.154 207.87 118.198 207.734 118.234C207.412 118.315 207.121 118.422 206.863 118.553C206.608 118.684 206.411 118.851 206.272 119.055C206.137 119.255 206.088 119.506 206.125 119.807C206.176 120.224 206.369 120.521 206.704 120.697C207.038 120.869 207.444 120.926 207.922 120.867ZM215.269 115.917L215.905 121.06L214.219 121.268L213.148 112.607L214.767 112.407L214.941 113.816L215.048 113.803C215.191 113.32 215.457 112.913 215.848 112.582C216.242 112.251 216.764 112.045 217.414 111.965C218.005 111.892 218.537 111.952 219.011 112.145C219.485 112.335 219.874 112.657 220.178 113.112C220.482 113.567 220.679 114.151 220.767 114.865L221.448 120.375L219.762 120.583L219.106 115.277C219.028 114.649 218.804 114.179 218.434 113.866C218.062 113.549 217.591 113.426 217.02 113.497C216.629 113.545 216.291 113.672 216.008 113.879C215.728 114.086 215.52 114.363 215.384 114.712C215.251 115.057 215.213 115.458 215.269 115.917ZM226.253 119.975C225.704 120.043 225.196 120.003 224.727 119.855C224.258 119.703 223.869 119.448 223.562 119.089C223.258 118.729 223.071 118.266 223.001 117.698C222.94 117.209 222.984 116.796 223.133 116.457C223.282 116.117 223.505 115.836 223.802 115.612C224.099 115.389 224.439 115.206 224.822 115.063C225.205 114.92 225.598 114.799 226.002 114.699C226.513 114.575 226.928 114.474 227.247 114.397C227.565 114.315 227.792 114.221 227.928 114.112C228.063 114.004 228.118 113.848 228.093 113.645L228.088 113.606C228.027 113.113 227.841 112.749 227.529 112.513C227.222 112.276 226.795 112.191 226.25 112.258C225.682 112.329 225.251 112.51 224.955 112.802C224.662 113.09 224.472 113.394 224.386 113.714L222.757 113.549C222.88 112.999 223.102 112.541 223.423 112.173C223.747 111.801 224.137 111.512 224.592 111.307C225.047 111.098 225.536 110.961 226.059 110.897C226.405 110.854 226.776 110.85 227.174 110.885C227.574 110.915 227.957 111.017 228.322 111.189C228.691 111.361 229.009 111.633 229.276 112.005C229.543 112.373 229.715 112.872 229.793 113.504L230.504 119.255L228.857 119.459L228.711 118.275L228.643 118.283C228.561 118.515 228.424 118.749 228.232 118.987C228.04 119.224 227.782 119.433 227.457 119.615C227.132 119.796 226.731 119.916 226.253 119.975ZM226.453 118.577C226.919 118.519 227.306 118.378 227.614 118.153C227.926 117.927 228.15 117.655 228.286 117.337C228.426 117.014 228.474 116.682 228.432 116.34L228.294 115.223C228.241 115.291 228.132 115.362 227.965 115.436C227.802 115.506 227.614 115.573 227.4 115.637C227.187 115.698 226.978 115.756 226.775 115.812C226.572 115.864 226.401 115.908 226.265 115.944C225.943 116.025 225.652 116.132 225.394 116.263C225.139 116.394 224.942 116.561 224.803 116.765C224.668 116.965 224.618 117.216 224.656 117.516C224.707 117.934 224.9 118.23 225.235 118.407C225.569 118.579 225.975 118.636 226.453 118.577Z" fill="#EFEFFD"/>
<rect x="145" y="45.5312" width="102.171" height="102.171" rx="51.0854" transform="rotate(-7.04504 145 45.5312)" stroke="url(#paint4_linear_4548_87)" stroke-width="2"/>
</g>
<g filter="url(#filter1_d_4548_87)">
<rect x="59.7969" y="135" width="106.919" height="106.919" rx="53.4595" transform="rotate(16.182 59.7969 135)" fill="url(#paint5_linear_4548_87)" shape-rendering="crispEdges"/>
<g clip-path="url(#clip1_4548_87)">
<path d="M105.835 171.394L89.2061 186.651L101.932 184.844L105.835 171.394Z" fill="#8A92B2"/>
<path d="M101.932 184.844L89.2061 186.651L98.5448 196.517L101.932 184.844Z" fill="#62688F"/>
<path d="M111.716 193.183L105.835 171.394L101.932 184.844L111.716 193.183Z" fill="#62688F"/>
<path d="M98.5448 196.517L111.716 193.183L101.932 184.844L98.5448 196.517Z" fill="#454A75"/>
<path d="M88.5915 188.769L95.2804 207.766L97.9314 198.631L88.5915 188.769Z" fill="#8A92B2"/>
<path d="M97.9314 198.631L95.2804 207.766L111.108 195.303L97.9314 198.631Z" fill="#62688F"/>
</g>
<path d="M53.9695 219.317L57.2125 208.142L64.2189 210.175L63.7977 211.627L58.4774 210.083L57.4893 213.488L62.444 214.926L62.0244 216.372L57.0697 214.934L56.0769 218.355L61.4626 219.918L61.0414 221.37L53.9695 219.317ZM69.4419 214.72L69.0619 216.03L64.4837 214.701L64.8637 213.392L69.4419 214.72ZM66.6742 211.74L68.3058 212.213L66.005 220.142C65.9131 220.458 65.8913 220.71 65.9394 220.898C65.9886 221.082 66.0793 221.224 66.2116 221.326C66.3485 221.425 66.5062 221.5 66.6844 221.552C66.8154 221.59 66.9326 221.614 67.0361 221.624C67.1396 221.635 67.2202 221.642 67.2779 221.647L67.1815 223.08C67.0764 223.089 66.9312 223.087 66.746 223.072C66.5598 223.062 66.3352 223.02 66.0722 222.948C65.6408 222.831 65.2629 222.638 64.9382 222.37C64.6136 222.103 64.3853 221.768 64.2532 221.367C64.1212 220.966 64.1285 220.512 64.2752 220.007L66.6742 211.74ZM72.0703 219.174L70.6261 224.151L68.9946 223.678L72.2375 212.502L73.8472 212.969L72.6406 217.127L72.7443 217.157C73.0717 216.763 73.4758 216.492 73.9566 216.344C74.4375 216.195 75.0035 216.216 75.6547 216.405C76.2294 216.571 76.6971 216.835 77.0578 217.196C77.4221 217.558 77.6544 218.008 77.7546 218.546C77.8596 219.082 77.8108 219.698 77.6081 220.397L76.061 225.728L74.4295 225.255L75.9195 220.12C76.0979 219.505 76.078 218.983 75.8596 218.553C75.6424 218.119 75.2518 217.82 74.688 217.656C74.3024 217.544 73.933 217.526 73.5799 217.601C73.2305 217.677 72.9225 217.848 72.6561 218.114C72.3943 218.377 72.199 218.731 72.0703 219.174ZM81.8015 227.577C80.9757 227.338 80.3157 226.955 79.8215 226.429C79.332 225.9 79.0188 225.267 78.8819 224.529C78.7497 223.789 78.8097 222.984 79.062 222.115C79.3111 221.256 79.6908 220.546 80.2009 219.984C80.7147 219.423 81.3141 219.043 81.9991 218.843C82.6878 218.645 83.4214 218.658 84.1999 218.884C84.6728 219.022 85.1085 219.233 85.5069 219.518C85.9053 219.803 86.2324 220.164 86.4881 220.601C86.7439 221.038 86.896 221.554 86.9446 222.148C86.9941 222.738 86.9086 223.413 86.688 224.174L86.5202 224.752L79.8575 222.819L80.2122 221.596L85.276 223.066C85.4006 222.637 85.4236 222.231 85.3451 221.849C85.2676 221.464 85.0985 221.129 84.838 220.844C84.5811 220.561 84.2417 220.358 83.8197 220.235C83.3613 220.102 82.9284 220.099 82.521 220.225C82.1183 220.349 81.7719 220.564 81.4819 220.87C81.1966 221.174 80.9932 221.535 80.8718 221.953L80.5947 222.908C80.4321 223.469 80.392 223.974 80.4745 224.423C80.5605 224.874 80.7517 225.255 81.0481 225.566C81.3455 225.873 81.7324 226.096 82.209 226.234C82.5182 226.324 82.8128 226.362 83.0928 226.349C83.3738 226.332 83.633 226.261 83.8702 226.137C84.1075 226.012 84.3132 225.833 84.4874 225.6L85.9509 226.326C85.6953 226.745 85.3578 227.079 84.9384 227.328C84.5238 227.575 84.0489 227.723 83.5138 227.773C82.9834 227.82 82.4127 227.755 81.8015 227.577ZM87.2568 228.977L89.689 220.596L91.266 221.053L90.8797 222.385L90.967 222.41C91.2507 222.003 91.6228 221.727 92.0833 221.58C92.5486 221.431 93.0268 221.428 93.5179 221.571C93.6197 221.6 93.7387 221.639 93.8748 221.686C94.0146 221.734 94.1229 221.776 94.1998 221.81L93.7469 223.37C93.6867 223.333 93.5761 223.279 93.4151 223.209C93.2552 223.135 93.0915 223.074 92.9242 223.025C92.5386 222.913 92.171 222.895 91.8216 222.971C91.4768 223.045 91.1755 223.2 90.9175 223.437C90.6605 223.67 90.4792 223.968 90.3737 224.332L88.8884 229.45L87.2568 228.977ZM96.4173 231.819C95.5915 231.579 94.9315 231.196 94.4373 230.67C93.9478 230.142 93.6346 229.508 93.4977 228.771C93.3655 228.03 93.4255 227.225 93.6778 226.356C93.9269 225.497 94.3066 224.787 94.8167 224.225C95.3305 223.664 95.9299 223.284 96.6149 223.085C97.3036 222.886 98.0372 222.9 98.8157 223.126C99.2886 223.263 99.7243 223.474 100.123 223.759C100.521 224.045 100.848 224.406 101.104 224.843C101.36 225.28 101.512 225.795 101.56 226.389C101.61 226.979 101.524 227.655 101.304 228.415L101.136 228.993L94.4733 227.06L94.828 225.838L99.8918 227.307C100.016 226.878 100.039 226.472 99.9609 226.091C99.8834 225.705 99.7143 225.37 99.4538 225.086C99.1969 224.802 98.8575 224.599 98.4355 224.477C97.9771 224.344 97.5442 224.34 97.1368 224.467C96.7341 224.59 96.3877 224.805 96.0977 225.112C95.8124 225.415 95.609 225.776 95.4876 226.195L95.2105 227.15C95.0479 227.71 95.0078 228.215 95.0903 228.665C95.1763 229.116 95.3675 229.497 95.6639 229.807C95.9613 230.115 96.3482 230.337 96.8248 230.476C97.134 230.565 97.4286 230.604 97.7086 230.59C97.9896 230.573 98.2488 230.502 98.486 230.378C98.7233 230.253 98.929 230.075 99.1032 229.841L100.567 230.568C100.311 230.986 99.9736 231.32 99.5542 231.569C99.1396 231.816 98.6647 231.964 98.1296 232.014C97.5992 232.061 97.0285 231.996 96.4173 231.819ZM108.191 231.283L109.614 226.378L111.251 226.853L108.819 235.234L107.215 234.769L107.636 233.317L107.549 233.292C107.226 233.683 106.809 233.966 106.296 234.141C105.789 234.313 105.22 234.308 104.591 234.126C104.053 233.969 103.61 233.713 103.264 233.356C102.923 232.997 102.702 232.548 102.602 232.01C102.505 231.473 102.557 230.859 102.758 230.168L104.305 224.837L105.936 225.31L104.446 230.445C104.281 231.016 104.307 231.517 104.525 231.947C104.744 232.377 105.106 232.666 105.611 232.812C105.917 232.901 106.243 232.913 106.589 232.848C106.939 232.783 107.259 232.626 107.549 232.375C107.842 232.125 108.056 231.761 108.191 231.283ZM111.011 235.87L113.443 227.489L115.01 227.943L114.614 229.307L114.717 229.337C115.026 228.926 115.416 228.649 115.888 228.506C116.36 228.359 116.873 228.366 117.426 228.526C117.986 228.689 118.417 228.956 118.72 229.327C119.026 229.7 119.203 230.142 119.252 230.653L119.339 230.679C119.669 230.289 120.091 230.025 120.604 229.886C121.119 229.744 121.678 229.76 122.282 229.935C123.043 230.156 123.594 230.574 123.936 231.19C124.281 231.807 124.315 232.596 124.036 233.556L122.405 239.177L120.773 238.703L122.36 233.235C122.525 232.668 122.489 232.212 122.254 231.868C122.019 231.523 121.686 231.289 121.257 231.164C120.726 231.01 120.266 231.054 119.876 231.296C119.487 231.534 119.219 231.908 119.071 232.417L117.521 237.759L115.895 237.287L117.512 231.716C117.644 231.261 117.608 230.855 117.404 230.496C117.201 230.137 116.872 229.892 116.417 229.76C116.108 229.67 115.798 229.669 115.489 229.757C115.184 229.842 114.91 230.005 114.667 230.246C114.427 230.488 114.252 230.798 114.142 231.176L112.643 236.344L111.011 235.87Z" fill="#EFEFFD"/>
<rect x="59.7969" y="135" width="106.919" height="106.919" rx="53.4595" transform="rotate(16.182 59.7969 135)" stroke="url(#paint6_linear_4548_87)" stroke-width="2" shape-rendering="crispEdges"/>
</g>
<g filter="url(#filter2_d_4548_87)">
<rect x="21.875" width="111.585" height="111.585" rx="55.7923" transform="rotate(4.56199 21.875 0)" fill="url(#paint7_linear_4548_87)"/>
<g clip-path="url(#clip2_4548_87)">
<path d="M69.4342 44.9227L75.5219 39.735L80.7127 45.8257L84.2549 42.8069L76.0454 33.1735L66.4155 41.3805L69.4342 44.9227Z" fill="#F3BA2F"/>
<path d="M66.9327 47.0539L63.914 43.5117L60.3717 46.5306L63.3904 50.0728L66.9327 47.0539Z" fill="#F3BA2F"/>
<path d="M69.0645 49.5557L74.2526 55.6431L80.3432 50.4528L83.364 53.9934L83.3622 53.9951L73.729 62.2046L65.522 52.5746L65.5178 52.5697L69.0645 49.5557Z" fill="#F3BA2F"/>
<path d="M85.8607 51.8672L89.403 48.8484L86.3843 45.3062L82.842 48.325L85.8607 51.8672Z" fill="#F3BA2F"/>
<path d="M78.2149 47.9529L78.2162 47.953L75.153 44.3585L72.4966 46.6223L72.4964 46.6223L72.1913 46.8825L71.5617 47.419L71.5568 47.4233L71.561 47.4284L74.6215 51.0197L78.216 47.9564L78.2177 47.9547L78.2149 47.9529Z" fill="#F3BA2F"/>
</g>
<path d="M41.3964 88.4237L42.3219 76.8242L46.5698 77.1631C47.3929 77.2288 48.0636 77.4191 48.5819 77.734C49.1004 78.0452 49.4754 78.4418 49.7067 78.9239C49.9384 79.4021 50.0313 79.9282 49.9855 80.5022C49.9469 80.9855 49.8256 81.3862 49.6217 81.7043C49.418 82.0187 49.159 82.264 48.8448 82.4403C48.5346 82.6131 48.1984 82.7307 47.8362 82.793L47.8272 82.9063C48.2108 82.9559 48.5766 83.1105 48.9245 83.37C49.2764 83.6261 49.5565 83.9734 49.7647 84.4118C49.9729 84.8502 50.0531 85.3696 50.0052 85.9699C49.9579 86.5627 49.7757 87.084 49.4586 87.5337C49.1456 87.9799 48.6893 88.3178 48.0896 88.5473C47.4902 88.7731 46.7412 88.8501 45.8425 88.7784L41.3964 88.4237ZM43.2663 87.0624L45.7923 87.2639C46.6306 87.3308 47.2439 87.2164 47.6323 86.9206C48.0207 86.6248 48.2343 86.2333 48.2732 85.7462C48.3024 85.38 48.2367 85.0365 48.0761 84.7159C47.9155 84.3953 47.6706 84.1307 47.3415 83.922C47.0161 83.7137 46.6193 83.5908 46.1511 83.5534L43.5627 83.3469L43.2663 87.0624ZM43.6716 81.9819L46.0165 82.169C46.4092 82.2004 46.7682 82.153 47.0937 82.027C47.4229 81.9013 47.6909 81.7098 47.8976 81.4527C48.1084 81.1922 48.2287 80.875 48.2585 80.5012C48.2968 80.0216 48.1608 79.6061 47.8507 79.2546C47.5405 78.903 47.0381 78.6995 46.3433 78.6441L43.9532 78.4534L43.6716 81.9819ZM51.696 89.2455L52.3902 80.5458L54.0837 80.681L53.3895 89.3806L51.696 89.2455ZM53.3525 79.2718C53.058 79.2483 52.8129 79.1299 52.6171 78.9167C52.4254 78.7 52.3405 78.4538 52.3625 78.1782C52.3848 77.8988 52.5076 77.6692 52.731 77.4894C52.9584 77.3061 53.2194 77.2263 53.5139 77.2498C53.8084 77.2733 54.0515 77.3934 54.2432 77.6101C54.439 77.8233 54.5257 78.0696 54.5034 78.349C54.4814 78.6246 54.3567 78.8541 54.1293 79.0373C53.906 79.2171 53.6471 79.2953 53.3525 79.2718ZM57.7734 84.5321L57.3613 89.6975L55.6678 89.5624L56.3619 80.8627L57.9875 80.9924L57.8745 82.4084L57.9821 82.417C58.219 81.9723 58.5619 81.6273 59.0109 81.3819C59.4636 81.1368 60.0166 81.0404 60.6698 81.0925C61.2626 81.1398 61.7719 81.3058 62.1975 81.5906C62.6235 81.8716 62.9398 82.2654 63.1464 82.772C63.3529 83.2787 63.4276 83.8908 63.3703 84.6082L62.9288 90.1417L61.2353 90.0066L61.6606 84.677C61.7109 84.0464 61.586 83.5405 61.2858 83.1594C60.9859 82.7745 60.549 82.5591 59.9751 82.5133C59.5824 82.482 59.2263 82.5391 58.9069 82.6846C58.5913 82.8304 58.3316 83.0605 58.128 83.3748C57.9284 83.6857 57.8102 84.0714 57.7734 84.5321ZM67.7164 90.7175C67.1651 90.6735 66.6748 90.5318 66.2455 90.2924C65.8165 90.0492 65.4874 89.7208 65.2582 89.3073C65.0328 88.8941 64.9428 88.4025 64.9883 87.8323C65.0275 87.3415 65.1541 86.945 65.3682 86.6429C65.5823 86.3407 65.8573 86.11 66.193 85.9506C66.5287 85.7912 66.8985 85.6801 67.3025 85.6173C67.7065 85.5546 68.1163 85.5151 68.5318 85.4988C69.0577 85.48 69.4845 85.4646 69.8122 85.4528C70.1402 85.4371 70.3815 85.3899 70.536 85.311C70.6905 85.2322 70.7759 85.0908 70.7921 84.8869L70.7953 84.8472C70.8348 84.3526 70.7256 83.9582 70.4679 83.664C70.214 83.3702 69.8132 83.2014 69.2657 83.1577C68.6956 83.1122 68.2362 83.2029 67.8875 83.4296C67.5429 83.6529 67.2961 83.9125 67.1471 84.2084L65.5844 83.719C65.8154 83.2054 66.1251 82.8007 66.5135 82.5049C66.906 82.2056 67.346 82.0014 67.8335 81.8921C68.3213 81.779 68.8276 81.7434 69.3525 81.7853C69.6998 81.813 70.0647 81.8839 70.447 81.998C70.8333 82.1086 71.1878 82.2851 71.5105 82.5274C71.8369 82.7701 72.0937 83.1003 72.2807 83.518C72.4681 83.9319 72.5365 84.4561 72.4859 85.0904L72.0249 90.8675L70.3711 90.7356L70.466 89.5462L70.398 89.5407C70.271 89.751 70.0896 89.9531 69.8537 90.1471C69.6179 90.3411 69.3225 90.4942 68.9678 90.6065C68.613 90.7188 68.1959 90.7558 67.7164 90.7175ZM68.193 89.3876C68.6612 89.4249 69.0688 89.3644 69.4158 89.2059C69.7667 89.0477 70.0408 88.8263 70.2383 88.5419C70.4399 88.254 70.5544 87.9382 70.5818 87.5946L70.6713 86.4732C70.606 86.5288 70.4845 86.5761 70.3065 86.6151C70.1327 86.6506 69.9348 86.6785 69.7128 86.6988C69.4911 86.7153 69.2752 86.7304 69.0651 86.744C68.8553 86.7539 68.6798 86.7627 68.5386 86.7704C68.2068 86.7857 67.901 86.8316 67.6213 86.9081C67.3454 86.9849 67.1189 87.1093 66.9418 87.2814C66.7687 87.45 66.6701 87.6853 66.646 87.9874C66.6126 88.4065 66.7421 88.736 67.0345 88.976C67.3273 89.2121 67.7134 89.3493 68.193 89.3876ZM76.3861 86.0172L75.974 91.1826L74.2805 91.0475L74.9747 82.3479L76.6002 82.4776L76.4872 83.8935L76.5948 83.9021C76.8317 83.4574 77.1746 83.1124 77.6236 82.867C78.0763 82.6219 78.6293 82.5255 79.2825 82.5776C79.8754 82.6249 80.3846 82.7909 80.8103 83.0757C81.2362 83.3567 81.5525 83.7505 81.7591 84.2572C81.9656 84.7638 82.0403 85.3759 81.9831 86.0933L81.5415 91.6268L79.8481 91.4917L80.2733 86.1621C80.3236 85.5315 80.1987 85.0256 79.8985 84.6445C79.5986 84.2596 79.1617 84.0442 78.5878 83.9984C78.1951 83.9671 77.839 84.0242 77.5196 84.1697C77.204 84.3155 76.9444 84.5456 76.7407 84.8599C76.5411 85.1708 76.4229 85.5566 76.3861 86.0172ZM87.4632 92.276C86.6212 92.2089 85.9114 91.9603 85.3339 91.5305C84.7605 91.0971 84.3384 90.5295 84.0676 89.8277C83.7968 89.126 83.6962 88.3389 83.7658 87.4667C83.8363 86.5832 84.0647 85.8167 84.4509 85.1673C84.8374 84.5142 85.3479 84.021 85.9825 83.6879C86.6171 83.3547 87.344 83.2208 88.1634 83.2862C88.8242 83.3389 89.4034 83.5086 89.9011 83.7953C90.3992 84.0783 90.7893 84.4514 91.0715 84.9147C91.3575 85.3783 91.5074 85.9052 91.5211 86.4952L89.8729 86.3637C89.8148 85.9487 89.6352 85.581 89.3339 85.2606C89.0365 84.9404 88.6178 84.7588 88.0778 84.7157C87.6059 84.6781 87.1825 84.7697 86.8076 84.9906C86.4369 85.208 86.1351 85.5373 85.9023 85.9785C85.6698 86.416 85.5289 86.9443 85.4795 87.5636C85.4289 88.1979 85.4814 88.7531 85.6373 89.2291C85.7931 89.7051 86.0365 90.0836 86.3674 90.3646C86.7022 90.6459 87.1093 90.8057 87.5889 90.844C87.9098 90.8696 88.2052 90.8343 88.4751 90.738C88.7491 90.6383 88.9837 90.4841 89.1789 90.2755C89.3779 90.0672 89.5258 89.8092 89.6225 89.5015L91.2707 89.633C91.1654 90.1908 90.9422 90.6784 90.6011 91.0957C90.26 91.5131 89.8226 91.8278 89.2889 92.0398C88.759 92.2521 88.1504 92.3309 87.4632 92.276ZM96.5975 93.0049C95.7404 92.9365 95.0168 92.6944 94.4268 92.2788C93.8409 91.8596 93.4065 91.3025 93.1238 90.6073C92.8452 89.9087 92.7418 89.1082 92.8138 88.2058C92.8849 87.3147 93.1137 86.5425 93.5003 85.8894C93.8905 85.2365 94.4011 84.7434 95.0319 84.4099C95.6664 84.0768 96.3877 83.9424 97.1958 84.0069C97.6866 84.0461 98.1559 84.1652 98.6036 84.3643C99.0513 84.5634 99.4445 84.8513 99.783 85.2279C100.122 85.6045 100.374 86.0788 100.542 86.6507C100.709 87.2189 100.761 87.8975 100.698 88.6867L100.65 89.287L93.7349 88.7352L93.8361 87.4665L99.0921 87.8859C99.1277 87.4404 99.0685 87.0386 98.9147 86.6805C98.7612 86.3187 98.5282 86.0246 98.2156 85.7982C97.9069 85.5722 97.5335 85.4417 97.0955 85.4068C96.6197 85.3688 96.195 85.4527 95.8214 85.6585C95.4519 85.8608 95.1559 86.1412 94.9335 86.4996C94.7152 86.8546 94.5887 87.2492 94.5541 87.6834L94.475 88.6746C94.4286 89.2561 94.4911 89.7589 94.6624 90.1829C94.8376 90.6073 95.1016 90.9418 95.4544 91.1866C95.8076 91.4276 96.2315 91.5678 96.7261 91.6073C97.0471 91.6329 97.3433 91.6109 97.6149 91.5414C97.8867 91.4681 98.1263 91.3466 98.3336 91.1769C98.541 91.0073 98.7065 90.7906 98.8301 90.5269L100.41 90.9436C100.244 91.4054 99.9806 91.8004 99.62 92.1289C99.2634 92.4538 98.8281 92.6946 98.3141 92.8511C97.804 93.0042 97.2319 93.0555 96.5975 93.0049Z" fill="#EFEFFD"/>
<rect x="21.875" width="111.585" height="111.585" rx="55.7923" transform="rotate(4.56199 21.875 0)" stroke="url(#paint8_linear_4548_87)" stroke-width="2"/>
</g>
<defs>
<filter id="filter0_d_4548_87" x="129" y="33" width="145.931" height="145.931" filterUnits="userSpaceOnUse" color-interpolation-filters="sRGB">
<feFlood flood-opacity="0" result="BackgroundImageFix"/>
<feColorMatrix in="SourceAlpha" type="matrix" values="0 0 0 0 0 0 0 0 0 0 0 0 0 0 0 0 0 0 127 0" result="hardAlpha"/>
<feOffset dy="16"/>
<feGaussianBlur stdDeviation="8"/>
<feComposite in2="hardAlpha" operator="out"/>
<feColorMatrix type="matrix" values="0 0 0 0 0 0 0 0 0 0 0 0 0 0 0 0 0 0 0.16 0"/>
<feBlend mode="normal" in2="BackgroundImageFix" result="effect1_dropShadow_4548_87"/>
<feBlend mode="normal" in="SourceGraphic" in2="effect1_dropShadow_4548_87" result="shape"/>
</filter>
<filter id="filter1_d_4548_87" x="13.9996" y="135" width="164.48" height="164.48" filterUnits="userSpaceOnUse" color-interpolation-filters="sRGB">
<feFlood flood-opacity="0" result="BackgroundImageFix"/>
<feColorMatrix in="SourceAlpha" type="matrix" values="0 0 0 0 0 0 0 0 0 0 0 0 0 0 0 0 0 0 127 0" result="hardAlpha"/>
<feOffset dy="16"/>
<feGaussianBlur stdDeviation="8"/>
<feComposite in2="hardAlpha" operator="out"/>
<feColorMatrix type="matrix" values="0 0 0 0 0 0 0 0 0 0 0 0 0 0 0 0 0 0 0.16 0"/>
<feBlend mode="normal" in2="BackgroundImageFix" result="effect1_dropShadow_4548_87"/>
<feBlend mode="normal" in="SourceGraphic" in2="effect1_dropShadow_4548_87" result="shape"/>
</filter>
<filter id="filter2_d_4548_87" x="-3.00017" y="0" width="152.106" height="152.106" filterUnits="userSpaceOnUse" color-interpolation-filters="sRGB">
<feFlood flood-opacity="0" result="BackgroundImageFix"/>
<feColorMatrix in="SourceAlpha" type="matrix" values="0 0 0 0 0 0 0 0 0 0 0 0 0 0 0 0 0 0 127 0" result="hardAlpha"/>
<feOffset dy="16"/>
<feGaussianBlur stdDeviation="8"/>
<feComposite in2="hardAlpha" operator="out"/>
<feColorMatrix type="matrix" values="0 0 0 0 0 0 0 0 0 0 0 0 0 0 0 0 0 0 0.16 0"/>
<feBlend mode="normal" in2="BackgroundImageFix" result="effect1_dropShadow_4548_87"/>
<feBlend mode="normal" in="SourceGraphic" in2="effect1_dropShadow_4548_87" result="shape"/>
</filter>
<linearGradient id="paint0_linear_4548_87" x1="196.085" y1="147.702" x2="263.912" y2="-31.743" gradientUnits="userSpaceOnUse">
<stop offset="0.0182032" stop-color="#27334F"/>
<stop offset="1"/>
</linearGradient>
<linearGradient id="paint1_linear_4548_87" x1="211.876" y1="59.1297" x2="196.92" y2="97.3348" gradientUnits="userSpaceOnUse">
<stop stop-color="#00FFA3"/>
<stop offset="1" stop-color="#DC1FFF"/>
</linearGradient>
<linearGradient id="paint2_linear_4548_87" x1="203.328" y1="55.7837" x2="188.373" y2="93.9888" gradientUnits="userSpaceOnUse">
<stop stop-color="#00FFA3"/>
<stop offset="1" stop-color="#DC1FFF"/>
</linearGradient>
<linearGradient id="paint3_linear_4548_87" x1="207.575" y1="57.4461" x2="192.619" y2="95.6512" gradientUnits="userSpaceOnUse">
<stop stop-color="#00FFA3"/>
<stop offset="1" stop-color="#DC1FFF"/>
</linearGradient>
<linearGradient id="paint4_linear_4548_87" x1="196.085" y1="147.702" x2="196.085" y2="64.3522" gradientUnits="userSpaceOnUse">
<stop/>
<stop offset="0.5" stop-color="#BA5ABC"/>
<stop offset="1"/>
</linearGradient>
<linearGradient id="paint5_linear_4548_87" x1="113.256" y1="241.919" x2="184.235" y2="54.1345" gradientUnits="userSpaceOnUse">
<stop offset="0.0182032" stop-color="#27334F"/>
<stop offset="1"/>
</linearGradient>
<linearGradient id="paint6_linear_4548_87" x1="113.256" y1="241.919" x2="115.294" y2="143.78" gradientUnits="userSpaceOnUse">
<stop/>
<stop offset="0.489583" stop-color="#62688F"/>
<stop offset="1" stop-opacity="0.776596"/>
</linearGradient>
<linearGradient id="paint7_linear_4548_87" x1="77.6673" y1="111.585" x2="151.743" y2="-84.3942" gradientUnits="userSpaceOnUse">
<stop offset="0.0182032" stop-color="#27334F"/>
<stop offset="1"/>
</linearGradient>
<linearGradient id="paint8_linear_4548_87" x1="77.6673" y1="111.585" x2="77.6673" y2="20.555" gradientUnits="userSpaceOnUse">
<stop/>
<stop offset="0.609375" stop-color="#F3BA2F"/>
<stop offset="1"/>
</linearGradient>
<clipPath id="clip0_4548_87">
<rect width="33.4255" height="27.1583" fill="white" transform="translate(182.175 66.0886) rotate(-7.04504)"/>
</clipPath>
<clipPath id="clip1_4548_87">
<rect width="43.2829" height="43.2829" fill="white" transform="translate(84.6919 163.381) rotate(16.182)"/>
</clipPath>
<clipPath id="clip2_4548_87">
<rect width="29.1233" height="29.1233" fill="white" transform="translate(61.6552 32.0254) rotate(4.56199)"/>
</clipPath>
</defs>
</svg>
