<svg width="252" height="27" viewBox="0 0 252 27" fill="none" xmlns="http://www.w3.org/2000/svg">
<g clip-path="url(#clip0_1_634)">
<path d="M206.599 2.46121H196.28V3.75L198.975 4.36638V22.9698C198.631 23.4181 198.057 23.9224 197.083 23.9224C195.306 23.9224 194.274 22.4095 193.758 21.5129L191.178 17.0302C190.147 15.125 188.943 14.2284 186.478 13.9483V13.6121C189.917 13.556 193.013 11.1466 193.013 7.89655C193.013 4.03017 189.401 2.51724 185.274 2.51724H175.93V3.80603L178.968 4.42241V23.306L175.471 23.9784L166.586 0.5C165.554 1.73276 164.408 2.62931 163.433 3.13362L163.777 4.08621L155.752 23.25L153.344 23.8664V25.1552H160.624V23.8664L158.217 23.25L160.911 16.2457H168.363L170.943 23.194L168.134 23.8664V25.1552H185.904V23.8664L182.924 23.25V14.4526C184.93 14.5647 185.905 15.4612 186.879 17.3103L190.376 23.4741C191.58 25.4914 193.299 26.5 195.478 26.5C197.14 26.5 198.459 25.5474 198.803 25.1552H206.771C213.535 25.1552 219.038 20.056 219.038 13.8362C219.038 7.1681 213.822 2.46121 206.599 2.46121ZM161.541 14.5086L164.694 6.43966L167.733 14.5086H161.541ZM184.529 12.8276C184.185 12.8276 183.44 12.8276 182.924 12.8276V4.36638H184.93C187.395 4.36638 189.057 6.15948 189 8.40086C188.885 10.6422 187.223 12.8276 184.529 12.8276ZM206.312 23.25H202.987V4.36638H206.369C211.643 4.36638 214.854 7.89655 214.854 13.8362C214.911 19.6078 211.586 23.25 206.312 23.25Z" fill="#8C8CA2"/>
<path d="M37.2611 23.25L28.6624 0.5C27.6306 1.73276 26.4841 2.62931 25.5095 3.13362L25.8535 4.08621L17.828 23.25L16.1083 23.8664L15.6497 25.1552H22.7579V23.8664L20.3503 23.25L23.0446 16.2457H30.4968L33.0764 23.194L30.2675 23.8664V25.1552H39.7834V23.8664L37.2611 23.25ZM23.6178 14.5086L26.7707 6.43965L29.8089 14.5086H23.6178Z" fill="#8C8CA2"/>
<path d="M16.7962 19.3838L15.9363 18.9356L10.949 23.3623H6.64968V4.3666L9.2293 3.75022V2.46143H0V3.75022L2.57962 4.3666V23.2502L0 23.8666V25.1554H14.5032L16.7962 19.3838Z" fill="#8C8CA2"/>
<path d="M57.1528 2.46143V3.75022L59.9044 4.3666L53.8853 19.5519L47.4649 4.3666L50.5032 3.75022V2.46143H40.1847V3.75022L43.1083 4.3666L52.2802 25.9399H53.2548L62.3694 4.3666H62.4841L65.3503 3.75022V2.46143H57.1528Z" fill="#8C8CA2"/>
<path d="M148.586 2.46143V3.75022L151.338 4.3666C151.338 4.3666 151.567 15.6295 151.452 18.4313C151.338 21.7373 148.701 23.9787 145.204 23.9787C141.65 23.9787 139.07 21.9054 138.955 18.1511V4.31056L141.65 3.69418V2.46143H132.306V3.75022L134.943 4.3666V18.3192C135.115 23.1381 139.07 26.2761 144.172 26.2761C149.274 26.2761 153.229 23.3623 153.401 18.3192L153.631 4.3666L156.325 3.75022V2.46143H148.586Z" fill="#8C8CA2"/>
<path d="M249.42 23.194L240.879 0.5C239.847 1.73276 238.701 2.62931 237.726 3.13362L238.07 4.08621L230.045 23.3621L228.669 23.9224L226.834 23.3621V4.36638L229.701 3.75V2.46121H220.013V3.75L222.822 4.42241V23.306L220.127 23.9224V25.1552H234.974V23.8664L232.567 23.25L235.261 16.2457H242.713L245.293 23.194L242.484 23.8664V25.1552H252V23.8664L249.42 23.194ZM235.834 14.5086L238.987 6.43965L242.025 14.5086H235.834Z" fill="#8C8CA2"/>
<path d="M98.7707 2.46121V3.75L101.58 4.42241L101.752 19.2716L87.2485 2.46121H81.0574V3.75L83.8663 4.36638L84.0956 4.47845L83.8663 23.25L81 23.9224L72.2293 0.5C71.1975 1.73276 70.051 2.62931 69.0765 3.13362L69.4204 4.08621L61.3949 23.25L58.9873 23.8664V25.1552H66.2676V23.8664L63.8599 23.25L66.5542 16.2457H74.0064L76.586 23.194L73.7771 23.8664V25.1552H89.0255V23.8664L86.0446 23.25L85.8727 6.8319L102.497 25.9397H103.586L103.815 4.36638L106.624 3.75V2.46121H98.7707ZM67.1848 14.5086L70.3376 6.43966L73.3758 14.5086H67.1848Z" fill="#8C8CA2"/>
<path d="M123.191 13.5558V14.8446L125.828 15.461V22.7455C124.567 23.7541 122.56 24.4265 120.611 24.4265C115.338 24.4265 111.955 20.0558 111.955 14.0601C111.898 8.28859 115.223 3.30152 120.611 3.30152C124.108 3.30152 127.261 5.711 128.35 9.46531L129.096 9.01704V1.90066L128.408 1.56445L126.974 3.30152C125.484 2.51704 122.962 1.73256 120.554 1.73256C113.389 1.73256 107.541 7.44807 107.541 14.2282C107.541 21.2886 112.643 26.3317 119.58 26.3317C122.389 26.3317 125.025 25.4912 127.089 23.9222L129.153 25.267H129.841V15.405L132.019 14.5645V13.4998H123.191V13.5558Z" fill="#8C8CA2"/>
</g>
<defs>
<clipPath id="clip0_1_634">
<rect width="252" height="26" fill="white" transform="translate(0 0.5)"/>
</clipPath>
</defs>
</svg>
