<svg width="159" height="45" viewBox="0 0 159 45" fill="none" xmlns="http://www.w3.org/2000/svg">
<path d="M48.8752 0.5H49.5427C50.8716 0.564152 52.177 1.00108 53.2677 1.75876C54.5574 2.64042 55.5547 3.88791 56.3139 5.23596C56.8967 6.27193 57.3348 7.37898 57.7422 8.4921C58.9167 11.7768 59.5485 15.2332 59.8225 18.7018C59.9952 21.0104 60.0685 23.3311 59.9202 25.6432C59.8111 27.3597 59.6043 29.0701 59.3443 30.7701C59.1174 32.1043 58.8391 33.5052 57.9543 34.5811C57.4142 35.2607 56.6629 35.8078 55.7955 35.9733C54.854 36.1485 53.7991 35.8944 53.1412 35.1766C52.3908 34.3626 52.1526 33.2139 52.136 32.1407C52.1552 30.5135 52.4196 28.9028 52.5583 27.2842C52.7372 25.2678 52.8899 23.2392 52.7669 21.215C52.6805 20.1313 52.5112 18.9835 51.8376 18.0906C51.3393 17.4378 50.5479 17.0174 49.7277 16.9541C48.9241 16.909 48.1562 17.2532 47.5166 17.7092C46.5044 18.4391 45.7313 19.4404 45.0673 20.4807C44.1825 21.8834 43.5412 23.4178 42.926 24.9505C41.6503 28.1867 40.6931 31.533 39.6181 34.8368C39.0902 36.3799 38.3677 37.878 37.3259 39.148C36.4847 40.1813 35.4211 41.0379 34.2187 41.6239C32.5931 42.4284 30.772 42.7552 28.9719 42.8532C27.1927 42.9711 25.3743 42.6859 23.7566 41.9282C21.6633 40.9607 19.967 39.2806 18.7602 37.3457C16.7524 34.0254 14.8607 30.6383 12.9105 27.2851C12.4245 26.4676 11.9097 25.6527 11.2335 24.9756C10.7736 24.5257 10.1838 24.1252 9.511 24.1451C8.90544 24.1928 8.27544 24.4165 7.87755 24.8933C7.46832 25.384 7.3034 26.0237 7.22662 26.6436C7.08613 27.8763 7.24494 29.1195 7.49798 30.3271C8.11838 33.272 9.20996 36.0904 9.97346 38.998C10.2527 40.1103 10.5241 41.2858 10.2352 42.4249C10.0241 43.3092 9.35481 44.0868 8.47526 44.3651C7.25366 44.7197 5.80782 44.3703 4.98586 43.3768C3.81225 41.9585 3.25206 40.1787 2.63167 38.4796C1.212 34.2959 0.185857 29.9439 0 25.5201V23.9249C0.0619524 21.3407 0.443265 18.7677 1.08548 16.264C1.63868 14.1071 2.42051 11.9814 3.65083 10.1089C4.7651 8.40281 6.32961 6.92905 8.25712 6.18263C10.1619 5.44662 12.3538 5.36947 14.2752 6.08814C15.8607 6.68198 17.0805 7.89913 18.2349 9.0842C18.8449 9.75433 19.3876 10.4817 19.9199 11.2133C21.0699 12.8111 22.1423 14.4617 23.192 16.1253C23.7871 17.0572 24.3255 18.0299 25.0288 18.8882C25.8882 19.9553 26.9414 20.9141 28.2224 21.4499C29.1953 21.8608 30.2973 21.9579 31.327 21.7178C32.4631 21.4811 33.4752 20.7988 34.182 19.8929C34.9691 18.9263 35.4062 17.7482 35.8757 16.6116C37.2055 13.3252 38.4925 10.0161 40.0378 6.82155C40.79 5.34173 41.8179 3.99194 43.0892 2.91349C44.7 1.53857 46.7383 0.605764 48.8752 0.5V0.5Z" fill="#8C8CA2"/>
<path d="M74.3774 30.836C73.1934 30.836 72.1454 30.588 71.2334 30.092C70.3374 29.58 69.6334 28.868 69.1214 27.956C68.6254 27.028 68.3774 25.94 68.3774 24.692V24.404C68.3774 23.156 68.6254 22.076 69.1214 21.164C69.6174 20.236 70.3134 19.524 71.2094 19.028C72.1054 18.516 73.1454 18.26 74.3294 18.26C75.4974 18.26 76.5134 18.524 77.3774 19.052C78.2414 19.564 78.9134 20.284 79.3934 21.212C79.8734 22.124 80.1134 23.188 80.1134 24.404V25.436H71.4494C71.4814 26.252 71.7854 26.916 72.3614 27.428C72.9374 27.94 73.6414 28.196 74.4734 28.196C75.3214 28.196 75.9454 28.012 76.3454 27.644C76.7454 27.276 77.0494 26.868 77.2574 26.42L79.7294 27.716C79.5054 28.132 79.1774 28.588 78.7454 29.084C78.3294 29.564 77.7694 29.98 77.0654 30.332C76.3614 30.668 75.4654 30.836 74.3774 30.836ZM71.4734 23.18H77.0414C76.9774 22.492 76.6974 21.94 76.2014 21.524C75.7214 21.108 75.0894 20.9 74.3054 20.9C73.4894 20.9 72.8414 21.108 72.3614 21.524C71.8814 21.94 71.5854 22.492 71.4734 23.18ZM88.541 30.836C87.245 30.836 86.101 30.604 85.109 30.14C84.117 29.676 83.341 29.012 82.781 28.148C82.221 27.284 81.941 26.244 81.941 25.028V24.356H85.061V25.028C85.061 26.036 85.373 26.796 85.997 27.308C86.621 27.804 87.469 28.052 88.541 28.052C89.629 28.052 90.437 27.836 90.965 27.404C91.509 26.972 91.781 26.42 91.781 25.748C91.781 25.284 91.645 24.908 91.373 24.62C91.117 24.332 90.733 24.1 90.221 23.924C89.725 23.732 89.117 23.556 88.397 23.396L87.845 23.276C86.693 23.02 85.701 22.7 84.869 22.316C84.053 21.916 83.421 21.396 82.973 20.756C82.541 20.116 82.325 19.284 82.325 18.26C82.325 17.236 82.565 16.364 83.045 15.644C83.541 14.908 84.229 14.348 85.109 13.964C86.005 13.564 87.053 13.364 88.253 13.364C89.453 13.364 90.517 13.572 91.445 13.988C92.389 14.388 93.125 14.996 93.653 15.812C94.197 16.612 94.469 17.62 94.469 18.836V19.556H91.349V18.836C91.349 18.196 91.221 17.684 90.965 17.3C90.725 16.9 90.373 16.612 89.909 16.436C89.445 16.244 88.893 16.148 88.253 16.148C87.293 16.148 86.581 16.332 86.117 16.7C85.669 17.052 85.445 17.54 85.445 18.164C85.445 18.58 85.549 18.932 85.757 19.22C85.981 19.508 86.309 19.748 86.741 19.94C87.173 20.132 87.725 20.3 88.397 20.444L88.949 20.564C90.149 20.82 91.189 21.148 92.069 21.548C92.965 21.948 93.661 22.476 94.157 23.132C94.653 23.788 94.901 24.628 94.901 25.652C94.901 26.676 94.637 27.58 94.109 28.364C93.597 29.132 92.861 29.74 91.901 30.188C90.957 30.62 89.837 30.836 88.541 30.836ZM97.3597 35.3V18.596H100.336V20.036H100.768C101.04 19.572 101.464 19.164 102.04 18.812C102.616 18.444 103.44 18.26 104.512 18.26C105.472 18.26 106.36 18.5 107.176 18.98C107.992 19.444 108.648 20.132 109.144 21.044C109.64 21.956 109.888 23.06 109.888 24.356V24.74C109.888 26.036 109.64 27.14 109.144 28.052C108.648 28.964 107.992 29.66 107.176 30.14C106.36 30.604 105.472 30.836 104.512 30.836C103.792 30.836 103.184 30.748 102.688 30.572C102.208 30.412 101.816 30.204 101.512 29.948C101.224 29.676 100.992 29.404 100.816 29.132H100.384V35.3H97.3597ZM103.6 28.196C104.544 28.196 105.32 27.9 105.928 27.308C106.552 26.7 106.864 25.82 106.864 24.668V24.428C106.864 23.276 106.552 22.404 105.928 21.812C105.304 21.204 104.528 20.9 103.6 20.9C102.672 20.9 101.896 21.204 101.272 21.812C100.648 22.404 100.336 23.276 100.336 24.428V24.668C100.336 25.82 100.648 26.7 101.272 27.308C101.896 27.9 102.672 28.196 103.6 28.196ZM118.328 30.836C117.144 30.836 116.08 30.596 115.136 30.116C114.192 29.636 113.448 28.94 112.904 28.028C112.36 27.116 112.088 26.02 112.088 24.74V24.356C112.088 23.076 112.36 21.98 112.904 21.068C113.448 20.156 114.192 19.46 115.136 18.98C116.08 18.5 117.144 18.26 118.328 18.26C119.512 18.26 120.576 18.5 121.52 18.98C122.464 19.46 123.208 20.156 123.752 21.068C124.296 21.98 124.568 23.076 124.568 24.356V24.74C124.568 26.02 124.296 27.116 123.752 28.028C123.208 28.94 122.464 29.636 121.52 30.116C120.576 30.596 119.512 30.836 118.328 30.836ZM118.328 28.148C119.256 28.148 120.024 27.852 120.632 27.26C121.24 26.652 121.544 25.788 121.544 24.668V24.428C121.544 23.308 121.24 22.452 120.632 21.86C120.04 21.252 119.272 20.948 118.328 20.948C117.4 20.948 116.632 21.252 116.024 21.86C115.416 22.452 115.112 23.308 115.112 24.428V24.668C115.112 25.788 115.416 26.652 116.024 27.26C116.632 27.852 117.4 28.148 118.328 28.148ZM127.36 30.5V18.596H130.336V19.94H130.768C130.944 19.46 131.232 19.108 131.632 18.884C132.048 18.66 132.528 18.548 133.072 18.548H134.512V21.236H133.024C132.256 21.236 131.624 21.444 131.128 21.86C130.632 22.26 130.384 22.884 130.384 23.732V30.5H127.36ZM141.435 30.5C140.651 30.5 140.011 30.26 139.515 29.78C139.035 29.284 138.795 28.628 138.795 27.812V21.092H135.819V18.596H138.795V14.9H141.819V18.596H145.083V21.092H141.819V27.284C141.819 27.764 142.043 28.004 142.491 28.004H144.795V30.5H141.435ZM152.765 30.836C151.213 30.836 149.941 30.5 148.949 29.828C147.957 29.156 147.357 28.196 147.149 26.948L149.933 26.228C150.045 26.788 150.229 27.228 150.485 27.548C150.757 27.868 151.085 28.1 151.469 28.244C151.869 28.372 152.301 28.436 152.765 28.436C153.469 28.436 153.989 28.316 154.325 28.076C154.661 27.82 154.829 27.508 154.829 27.14C154.829 26.772 154.669 26.492 154.349 26.3C154.029 26.092 153.517 25.924 152.813 25.796L152.141 25.676C151.309 25.516 150.549 25.3 149.861 25.028C149.173 24.74 148.621 24.348 148.205 23.852C147.789 23.356 147.581 22.716 147.581 21.932C147.581 20.748 148.013 19.844 148.877 19.22C149.741 18.58 150.877 18.26 152.285 18.26C153.613 18.26 154.717 18.556 155.597 19.148C156.477 19.74 157.053 20.516 157.325 21.476L154.517 22.34C154.389 21.732 154.125 21.3 153.725 21.044C153.341 20.788 152.861 20.66 152.285 20.66C151.709 20.66 151.269 20.764 150.965 20.972C150.661 21.164 150.509 21.436 150.509 21.788C150.509 22.172 150.669 22.46 150.989 22.652C151.309 22.828 151.741 22.964 152.285 23.06L152.957 23.18C153.853 23.34 154.661 23.556 155.381 23.828C156.117 24.084 156.693 24.46 157.109 24.956C157.541 25.436 157.757 26.092 157.757 26.924C157.757 28.172 157.301 29.14 156.389 29.828C155.493 30.5 154.285 30.836 152.765 30.836Z" fill="#8C8CA2"/>
</svg>
