<svg width="230" height="104" viewBox="0 0 230 104" fill="none" xmlns="http://www.w3.org/2000/svg">
<g clip-path="url(#clip0_1_532)">
<path fill-rule="evenodd" clip-rule="evenodd" d="M12.3453 204.689C28.9384 250.555 94.7485 184.259 116.128 237.07C120.369 246.825 130.89 276.379 151.146 280.175C157.137 281.289 168.429 280.175 175.096 275.669C190.982 264.945 196.524 242.27 202.531 220.597C206.306 206.272 205.615 187.618 196.138 176.798C181.649 160.292 134.183 174.94 119.742 154.511C105.591 137.295 90.2347 114.733 69.642 113.15C43.1862 114.168 6.49836 181.255 12.3453 204.689ZM183.882 230.949C180.91 235.503 174.806 236.763 170.293 233.759C165.763 230.755 164.51 224.634 167.498 220.096C170.485 215.542 176.573 214.282 181.087 217.286C185.617 220.29 186.87 226.395 183.882 230.949ZM162.422 195.144C165.41 190.59 171.497 189.346 176.011 192.35C180.541 195.354 181.794 201.475 178.806 206.013C175.818 210.568 169.731 211.827 165.217 208.823C160.687 205.819 159.418 199.699 162.422 195.144ZM159.081 236.069C156.093 240.623 150.005 241.883 145.491 238.863C140.962 235.859 139.725 229.738 142.713 225.2C145.7 220.645 151.772 219.386 156.302 222.389C160.816 225.393 162.068 231.514 159.081 236.069ZM137.621 200.264C140.608 195.709 146.696 194.466 151.21 197.47C155.74 200.474 156.993 206.578 154.005 211.133C151.017 215.687 144.929 216.947 140.416 213.927C135.886 210.939 134.633 204.818 137.621 200.264ZM93.3831 182.822C91.8571 185.131 89.9777 188.006 88.4678 190.315C86.9418 192.657 83.8256 193.335 81.4483 191.866C74.8785 187.78 72.5494 185.729 71.1198 177.751C70.6218 175.005 72.3566 172.373 75.0713 171.743C82.91 169.918 85.705 171.242 92.0338 175.716C94.3148 177.347 94.9251 180.48 93.3831 182.822ZM67.8108 153.38C76.6776 138.28 75.9708 143.189 86.6206 150.328C88.9336 151.878 89.6244 154.995 88.1626 157.369C84.2272 163.781 82.139 166.09 74.5091 167.528C71.7462 168.044 69.0798 166.236 68.5176 163.474C68.0678 161.261 67.5538 158.742 67.2165 157.062C66.9434 155.803 67.1683 154.478 67.8108 153.38ZM67.0398 178.897C68.7425 186.52 67.4574 189.346 63.1365 195.516C61.5302 197.809 58.414 198.39 56.0848 196.856C45.3869 189.847 41.1462 192.415 51.4587 178.267C52.2136 177.234 53.322 176.507 54.5749 176.249C56.2455 175.909 58.7513 175.393 60.9519 174.924C63.7308 174.375 66.4294 176.136 67.0398 178.897ZM53.7718 150.36C60.3415 154.446 62.6707 156.497 64.1003 164.475C64.5982 167.221 62.8634 169.853 60.1488 170.483C52.31 172.308 49.5151 170.984 43.1862 166.51C40.9053 164.895 40.311 161.762 41.837 159.42C43.3629 157.111 45.2423 154.236 46.7522 151.927C48.2943 149.569 51.3944 148.89 53.7718 150.36Z" fill="url(#paint0_linear_1_532)" fill-opacity="0.3"/>
<path fill-rule="evenodd" clip-rule="evenodd" d="M148.078 285.084C122.216 305.514 91.9856 296.47 64.9516 280.013C40.825 266.043 19.0918 247.761 18.642 230.642C18.642 230.642 6.70718 223.843 0.860251 205.706V258.84L114.988 324.022C114.988 324.022 142.311 307.937 170.935 291.108C161.779 291.69 156.687 291.27 148.078 285.084Z" fill="url(#paint1_linear_1_532)" fill-opacity="0.3"/>
<path fill-rule="evenodd" clip-rule="evenodd" d="M207.43 103.072C171.481 103.961 118.297 99.5194 83.5525 110.178C87.6486 112.294 91.6162 114.668 95.407 117.285C117.285 112.149 151.354 112.633 179.754 112.924C194.211 113.069 205.84 124.94 205.76 139.491C205.696 151.749 205.647 153.735 205.615 167.608C224.473 188.781 215.092 253.914 182.661 283.615C180.942 285.197 222.546 261.57 228.907 258.824C230.947 224.57 229.051 148.277 229.951 112.94C229.597 101.732 218.787 103.072 207.43 103.072Z" fill="url(#paint2_linear_1_532)" fill-opacity="0.3"/>
<path fill-rule="evenodd" clip-rule="evenodd" d="M18.1601 146.758C18.1601 141.703 18.0637 141.494 17.9834 127.298C17.9031 112.456 29.597 93.6731 51.5551 93.6731L210.563 93.6731C228.601 93.6731 229.854 92.9625 229.854 84.1283V12.1958L176.091 12.1958C173.216 12.1958 170.036 14.5375 170.036 17.4122C169.955 19.9317 170.277 26.9408 170.277 32.1088C170.277 35.5973 170.357 38.1167 163.755 38.1167C158.856 38.1167 146.68 38.1167 146.68 38.1167C143.805 38.1167 141.492 35.7749 141.492 32.9002V6.22022C141.492 2.71565 138.617 -0.0944678 135.115 0.00243286C123.212 0.325435 102.218 0.244684 93.2707 0.131634C88.6124 0.0831834 84.7573 3.76541 84.5806 8.46509C84.3878 13.6977 84.2111 28.6366 84.3396 32.9002C84.3396 35.7911 82.0105 38.1167 79.1513 38.1167H59.0726C56.9362 38.149 54.0127 36.4209 54.0127 33.6916C54.0127 28.4751 54.2055 21.4013 54.2055 18.6235C54.2055 15.7326 50.6716 12.1958 47.8124 12.1958L0.0249755 12.1958C-0.16778 26.8762 0.828125 179.931 0.522928 192.399C3.94435 167.608 18.1601 146.758 18.1601 146.758ZM17.9513 35.7265C17.9513 32.8356 20.2804 30.51 23.1396 30.51C25.3403 30.623 31.8458 30.6715 36.0864 30.6876C38.2388 30.6876 39.9576 32.448 39.9576 34.6121C39.9576 34.9997 39.9576 35.3873 39.9576 35.7426C39.9576 40.8784 39.9255 45.9172 39.9094 49.7609C39.8773 53.5562 42.9292 56.6247 46.688 56.6247C60.8716 56.6247 92.1945 56.6247 92.1945 56.6247C97.7041 56.6247 97.3828 51.0529 97.3828 48.1621C97.6237 40.1516 97.7041 28.6689 97.7041 24.5829C97.7201 21.1268 100.499 18.3328 103.953 18.3328H123.26C126.136 18.3328 128.449 20.6746 128.449 23.5493V48.1782C128.449 51.0691 127.758 56.6409 133.637 56.6409H178.742C184.557 56.6409 183.93 51.0691 183.93 48.1782C183.93 45.3035 183.946 37.1638 183.978 34.9997C184.011 32.4642 186.067 30.4454 188.589 30.4615C192.106 30.4938 196.989 30.5261 200.748 30.5261C204.957 30.5261 206.37 32.0442 206.37 35.9526C206.37 39.6509 205.937 54.6867 205.937 56.9962C205.937 57.626 205.937 64.7321 205.937 65.3619C205.92 69.4156 202.66 72.6941 198.628 72.6941L25.3563 72.9848C21.2924 72.9848 18.0155 69.674 18.0316 65.588C18.0316 64.8128 18.0316 57.5453 18.0316 56.7539C18.0316 54.186 17.9513 40.6361 17.9513 35.7265Z" fill="url(#paint3_linear_1_532)" fill-opacity="0.3"/>
</g>
<defs>
<linearGradient id="paint0_linear_1_532" x1="125.951" y1="97" x2="125.951" y2="-1.5" gradientUnits="userSpaceOnUse">
<stop stop-opacity="0"/>
<stop offset="0.472288" stop-color="#CC6AFF"/>
<stop offset="1" stop-color="#EBFF00"/>
</linearGradient>
<linearGradient id="paint1_linear_1_532" x1="125.951" y1="97" x2="125.951" y2="-1.5" gradientUnits="userSpaceOnUse">
<stop stop-opacity="0"/>
<stop offset="0.472288" stop-color="#CC6AFF"/>
<stop offset="1" stop-color="#EBFF00"/>
</linearGradient>
<linearGradient id="paint2_linear_1_532" x1="125.951" y1="97" x2="125.951" y2="-1.5" gradientUnits="userSpaceOnUse">
<stop stop-opacity="0"/>
<stop offset="0.472288" stop-color="#CC6AFF"/>
<stop offset="1" stop-color="#EBFF00"/>
</linearGradient>
<linearGradient id="paint3_linear_1_532" x1="125.951" y1="97" x2="125.951" y2="-1.5" gradientUnits="userSpaceOnUse">
<stop stop-opacity="0"/>
<stop offset="0.472288" stop-color="#CC6AFF"/>
<stop offset="1" stop-color="#EBFF00"/>
</linearGradient>
<clipPath id="clip0_1_532">
<rect width="230" height="104" fill="white"/>
</clipPath>
</defs>
</svg>
