<svg width="188" height="63" viewBox="0 0 188 63" fill="none" xmlns="http://www.w3.org/2000/svg">
<g clip-path="url(#clip0_1_648)">
<path d="M59.7174 32.5811C59.7633 32.5811 45.2777 24.1115 45.2353 23.8624C44.9076 22.0624 44.4949 19.0897 42.4966 17.5519C40.7769 16.24 29.1675 10.8261 29.1446 10.7697C27.007 7.49364 25.1129 4.06095 23.4774 0.5C21.9246 1.68512 20.6615 3.21678 19.7861 4.97633C18.9107 6.73589 18.4466 8.67612 18.4295 10.6468C12.7266 11.4755 7.37404 13.9327 2.99733 17.7313C14.3479 15.0941 17.6171 17.5253 17.6171 17.5253C13.901 18.1966 10.3202 19.4871 7.01998 21.3449C2.18166 24.0419 0 27.2803 0 27.2803C0 27.2803 10.9869 24.0949 19.4189 27.1938C15.4868 27.7563 11.8318 29.5679 8.97891 32.3686C26.4551 34.564 35.0737 49.9418 38.7001 62.3672C40.0334 40.2668 29.1806 31.8737 29.1806 31.8737C32.332 32.1028 36.2956 34.5871 38.831 38.284C46.5619 37.4005 50.8663 39.8018 50.8303 39.8018C50.7451 39.8018 55.0102 38.4731 58.0173 37.0682C57.7586 36.6731 56.671 35.3012 56.0519 34.5341C56.1369 34.5408 58.5152 34.3979 59.7174 32.5811ZM35.5783 22.7996C35.7486 22.7565 39.5354 21.6771 40.6164 22.0922C41.599 22.4676 41.6187 25.3039 41.6187 25.3039C41.6187 25.3039 39.3748 25.6229 35.5783 22.7996Z" fill="#8C8CA2"/>
<path d="M79.4149 24.3721C75.6674 24.3721 71.8806 27.0293 71.8806 32.0744C71.8806 37.1196 75.6608 39.7468 79.3953 39.7468C83.1296 39.7468 86.91 37.1129 86.91 32.0744C86.91 27.0358 83.1362 24.3721 79.4149 24.3721ZM79.3887 36.7476C77.3249 36.7476 75.2351 35.1533 75.2351 32.0976C75.2351 28.9922 77.3381 27.3681 79.4149 27.3681C81.8455 27.3681 83.5425 29.291 83.5425 32.0446C83.5425 35.1334 81.4525 36.7476 79.3887 36.7476Z" fill="#8C8CA2"/>
<path d="M160.602 24.3721C156.854 24.3721 153.068 27.0293 153.068 32.0744C153.068 37.1196 156.848 39.7468 160.582 39.7468C164.317 39.7468 168.093 37.1129 168.093 32.0744C168.093 27.0358 164.323 24.3721 160.602 24.3721ZM160.576 36.7476C158.509 36.7476 156.422 35.1533 156.422 32.0976C156.422 28.9922 158.525 27.3681 160.602 27.3681C163.029 27.3681 164.726 29.291 164.726 32.0446C164.726 35.1334 162.639 36.7476 160.576 36.7476Z" fill="#8C8CA2"/>
<path d="M95.5343 39.6938H94.7219L94.6662 39.581L87.4497 24.7578H91.2136L95.1674 33.8051L99.1246 24.7578H102.803L95.5343 39.6938Z" fill="#8C8CA2"/>
<path d="M110.705 39.7468C106.22 39.7468 103.324 36.7243 103.324 32.0477C103.324 27.6006 106.371 24.3721 110.567 24.3721C114.763 24.3721 117.41 27.3613 117.41 32.0113C117.41 32.1308 117.41 32.2604 117.41 32.3932C117.41 32.526 117.41 32.6623 117.41 32.8018V33.0045H106.711C107.039 35.449 108.48 36.7375 110.921 36.7375C111.655 36.7489 112.384 36.6049 113.061 36.3151C113.738 36.0251 114.348 35.5956 114.852 35.0536L115.006 34.8975L116.817 37.1129L116.699 37.2458C115.173 38.9563 113.263 39.7468 110.705 39.7468ZM106.774 30.5332H114.016C113.715 28.4342 112.454 27.2351 110.534 27.2351C108.615 27.2351 107.213 28.5205 106.774 30.5332Z" fill="#8C8CA2"/>
<path d="M146.414 39.6939H145.579L141.923 30.7297L138.267 39.6939H137.403L131.516 24.7577H135.1L138.064 33.0646L141.517 24.6748H142.378L145.91 33.0646L148.796 24.7577H152.356L146.414 39.6939Z" fill="#8C8CA2"/>
<path d="M128.863 24.7809H128.722C127.711 24.7508 126.71 24.9869 125.816 25.4659C124.922 25.9451 124.166 26.6508 123.621 27.5143L123.553 24.7544H120.388V39.3916H123.664V32.4501C123.664 31.0184 124.395 29.8627 125.721 29.0722C126.95 28.3414 128.65 28.006 129.773 28.2882C129.515 27.2353 128.863 24.7809 128.863 24.7809Z" fill="#8C8CA2"/>
<path d="M182.258 39.3914H178.982V27.6702H176.073L176.823 24.7542H178.982V23.9504C178.982 20.5294 180.915 18.4867 184.157 18.4867C185.477 18.4642 186.77 18.8678 187.849 19.6392L188 19.7488L186.546 22.2531L186.362 22.1003C185.81 21.614 185.099 21.3504 184.367 21.3597C183.027 21.3597 182.258 22.2564 182.258 23.8242V24.7641H186.988V27.6803H182.258V39.3914Z" fill="#8C8CA2"/>
<path d="M173.951 39.3916H170.675V18.8423H173.951V39.3916Z" fill="#8C8CA2"/>
</g>
<defs>
<clipPath id="clip0_1_648">
<rect width="188" height="62" fill="white" transform="translate(0 0.5)"/>
</clipPath>
</defs>
</svg>
