<svg width="250" height="85" viewBox="0 0 250 85" fill="none" xmlns="http://www.w3.org/2000/svg">
<path d="M54.3112 69.4845H56.0505L58.3281 77.8081L60.4814 69.4845H62.1793L64.6226 77.891L66.7759 69.4845H68.3495L65.5336 79.5888H63.5873L61.2683 71.8449L59.1977 79.5888H57.21L54.3112 69.4845ZM69.8818 78.9262C69.3434 78.3465 69.0535 77.5597 69.0949 76.7315C69.0535 75.9032 69.3848 75.1164 69.9646 74.5367C70.9585 73.7913 72.1594 73.46 73.3603 73.5842H75.4722V72.963C75.4722 72.6318 75.4308 72.2591 75.348 71.9278C75.2652 71.6793 75.141 71.4308 74.9753 71.2238C74.3541 70.7683 73.6088 70.5612 72.8634 70.644C71.9523 70.644 71.0413 70.7268 70.1302 70.8925L70.0474 69.5673C71.0413 69.3189 72.0765 69.1946 73.1118 69.1946C74.2299 69.1118 75.3894 69.4431 76.2591 70.1057C76.5903 70.437 76.7974 70.8097 76.963 71.2238C77.1287 71.7621 77.1701 72.3005 77.1701 72.8802V79.5474H75.7621L75.7207 78.9262C74.7683 79.5474 73.6916 79.8787 72.5321 79.8787C71.5382 79.9615 70.5857 79.6302 69.8818 78.9262ZM74.2299 78.3465C74.6854 78.2222 75.0995 78.0566 75.5137 77.8495V74.8265H73.6502C72.8633 74.7437 72.0765 74.9508 71.3726 75.3235C70.9999 75.6548 70.7514 76.1517 70.7928 76.6486C70.7514 77.1456 70.9584 77.6425 71.3311 78.0152C71.7867 78.3465 72.325 78.5121 72.8634 78.4707C73.3189 78.5121 73.7744 78.4707 74.2299 78.3465ZM82.4707 84.4753C82.1394 84.4339 81.8495 84.3925 81.5183 84.3511L81.3526 83.0259C82.0152 83.1087 82.6364 83.1502 83.2989 83.1502C84.0443 83.233 84.7897 83.0259 85.4109 82.5704C85.6594 82.3633 85.825 82.0735 85.9078 81.7422C86.0321 81.2867 86.0735 80.8311 86.0735 80.3756V79.0091C85.0796 79.5888 83.9615 79.9201 82.8434 79.9201C81.891 80.0029 80.9799 79.6716 80.3173 79.0505C79.6962 78.3051 79.4063 77.3526 79.4891 76.4002V69.5259H81.187V76.1931C81.187 76.5244 81.2284 76.8971 81.3112 77.2284C81.394 77.4768 81.5183 77.7253 81.6839 77.891C82.1394 78.2637 82.7192 78.4707 83.2989 78.3879C83.7545 78.3879 84.2514 78.3051 84.7069 78.2222C85.2038 78.098 85.6594 77.9324 86.0735 77.7253V69.4845H87.7713V80.3756C88.0612 82.3633 86.6946 84.2269 84.7069 84.5581C84.3342 84.5995 83.9615 84.5995 83.5888 84.5581C83.1747 84.5581 82.8434 84.5167 82.4707 84.4753ZM90.1318 69.4845H91.5397L91.6226 70.3541C92.4094 69.6502 93.4446 69.2361 94.4799 69.2361C94.687 69.2361 94.9354 69.236 95.1425 69.3189V70.8511C94.8526 70.8511 94.5627 70.8097 94.2729 70.8097C93.4032 70.8097 92.5336 71.0167 91.8296 71.4722V79.6302H90.1318V69.4845ZM96.6747 78.9262C96.1364 78.3465 95.8465 77.5597 95.8879 76.7315C95.8465 75.9032 96.1778 75.1164 96.7989 74.5367C97.7928 73.7913 98.9937 73.46 100.195 73.5842H102.307V72.963C102.307 72.6318 102.265 72.2591 102.182 71.9278C102.1 71.6793 101.975 71.4308 101.768 71.2238C101.147 70.7683 100.402 70.5612 99.6563 70.644C98.7453 70.644 97.8342 70.7268 96.9232 70.8925L96.8403 69.5673C97.8342 69.3189 98.8695 69.1946 99.9048 69.1946C101.023 69.1118 102.182 69.4431 103.052 70.1057C103.383 70.437 103.59 70.8097 103.756 71.2238C103.922 71.7621 103.963 72.3005 103.963 72.8802V79.5474H102.596L102.472 78.8434C101.52 79.4646 100.443 79.7959 99.2836 79.7959C98.3311 79.9615 97.3787 79.6302 96.6747 78.9262ZM100.981 78.3465C101.437 78.2222 101.851 78.0566 102.265 77.8495V74.8265H100.402C99.6149 74.7437 98.8281 74.9508 98.1241 75.3235C97.7514 75.6548 97.5029 76.1517 97.5443 76.6486C97.5029 77.1456 97.71 77.6425 98.0827 78.0152C98.5382 78.3465 99.0766 78.5121 99.6149 78.4707C100.07 78.5121 100.526 78.4707 100.981 78.3465ZM99.9876 59.0489L82.7606 0.410889H70.0888L59.1149 37.8051L48.141 0.410889H35.4692L24.4124 37.9707L13.3971 0.410889H0.766724L17.9937 59.0489H30.7897L41.7637 21.6962L52.7376 59.0489H65.4094L76.3833 21.6962L87.3572 59.0489H99.9876Z" fill="#EFEFFD"/>
<path d="M125.414 0.410889H124.834V59.2146H125.414V0.410889Z" fill="#E9EAE8"/>
<path d="M175.894 43.2713C174.362 45.5489 172.167 47.5781 170.304 47.5781C169.517 47.5781 169.186 47.164 169.186 46.2529C169.186 45.6732 169.268 45.0934 169.434 44.5551C171.339 43.6854 173.078 42.4845 174.569 41.0351C175.397 40.2897 175.936 39.2545 176.06 38.1364C176.101 37.1425 175.48 36.7284 174.321 36.7284C172.374 36.894 170.594 37.8051 169.31 39.2545C167.529 41.1594 166.411 43.6026 166.204 46.1701C166.204 47.868 166.991 49.1931 169.144 49.1103C171.463 49.0275 173.741 47.2468 174.9 45.9631C174.776 46.46 174.693 46.9569 174.652 47.4539C174.569 48.8618 175.522 50.1042 176.847 50.4355L177.137 50.3112C177.012 49.8971 176.971 49.4416 177.012 49.0275C177.261 47.2054 177.758 45.4661 178.545 43.8097C180.16 39.7514 182.52 35.1134 183.514 32.3388L181.029 32.7943C180.698 32.8772 180.408 33.1256 180.284 33.4569C179.083 35.983 177.882 38.6747 176.35 42.1946C176.226 42.4845 176.101 42.8572 175.894 43.2713ZM173.617 37.8879C173.989 37.8879 174.114 38.1364 174.114 38.4677C174.114 40.0413 172.167 42.0704 169.683 43.5612C170.304 41.0766 172.043 37.8465 173.617 37.8879ZM215.69 47.3296C215.69 48.4477 216.394 49.1517 217.761 49.1103C219.293 48.9446 220.742 48.2407 221.778 47.1226C221.985 48.3235 222.854 49.1931 224.635 49.1517C226.54 48.9447 228.279 48.0336 229.48 46.5842V46.9569C229.356 48.0336 230.101 48.9861 231.178 49.1103C231.302 49.1103 231.426 49.1103 231.551 49.1103C233.083 49.1103 234.864 47.9922 236.23 45.9631H236.272C236.106 46.5428 236.023 47.164 235.982 47.7437C235.899 49.0275 236.81 50.1456 238.094 50.3526L238.384 50.2284C237.928 49.1517 238.549 46.46 238.839 45.5489C239.75 42.7744 240.827 40.0827 242.069 37.4738C241.365 37.0597 240.578 36.8526 239.792 36.8526C236.603 36.7284 233.414 38.0535 231.054 42.1946C230.598 42.9815 230.226 43.7683 229.936 44.6379C229.687 44.9692 229.397 45.3005 229.107 45.6318C228.279 46.46 227.078 47.4953 225.836 47.4953C225.132 47.4953 224.759 47.0397 224.759 46.1701C224.759 42.8572 227.699 37.8465 229.687 37.8051C230.267 37.8051 230.474 38.0535 230.474 38.5091C230.391 39.2131 230.101 39.8342 229.563 40.2897L229.811 40.4968C231.137 39.9999 232.379 39.0474 232.379 38.0535C232.379 36.9354 231.095 36.7284 229.936 36.7284C227.989 36.8526 226.167 37.7223 224.925 39.2131C223.269 40.9937 222.15 43.2713 221.778 45.6732C221.157 46.5428 220.287 47.164 219.252 47.4124C218.92 47.4538 218.672 47.2468 218.63 46.9155C218.63 46.8741 218.63 46.8741 218.63 46.8327C218.713 46.1701 218.879 45.5075 219.169 44.8864C220.038 42.733 221.239 40.0827 222.772 36.9355C222.772 36.9355 220.453 37.3081 220.121 37.4324C219.79 37.5152 219.5 37.7637 219.334 38.0535C218.341 40.1655 217.181 42.6088 216.436 44.3894C216.063 45.3419 215.815 46.3358 215.69 47.3296ZM237.431 38.2606C238.011 37.9707 238.673 37.8879 239.295 38.0121C239.088 38.4263 238.218 40.2069 237.514 41.8219C236.396 44.348 234.781 46.9155 233.249 47.2882C232.71 47.4539 232.42 47.2054 232.42 46.667C232.462 44.4309 234.905 39.4201 237.431 38.2606ZM180.035 46.0873C179.87 47.5367 180.946 48.8618 182.396 49.0275C182.644 49.0689 182.851 49.0689 183.1 49.0275C185.46 48.9446 187.655 47.5781 189.519 45.6318C189.063 46.8741 188.649 47.9922 188.4 48.572C187.696 50.2698 187.199 51.7192 186.123 52.506L186.247 52.7131C189.394 52.8787 190.554 50.6839 191.838 47.1226C193.121 43.5612 194.198 40.414 195.068 38.2606C196.517 38.3434 198.008 38.2606 199.457 38.0535C196.641 39.2959 194.198 43.8511 194.488 46.7913C194.529 48.075 195.565 49.0689 196.848 49.0275C196.931 49.0275 197.014 49.0275 197.055 49.0275C200.327 49.0275 203.06 45.1762 204.095 42.6502C204.675 41.4078 205.006 40.0827 205.172 38.7161C205.959 38.5919 206.704 38.4677 207.077 38.3848C207.781 38.302 207.657 39.0888 207.408 39.6686C206.083 43.3956 203.764 48.7376 203.764 48.8618H206.29C207.367 46.5842 208.071 45.0934 208.94 43.5612C210.017 41.7391 212.336 38.7161 213.288 38.6747C213.62 38.6747 213.703 38.8818 213.62 39.2545C213.454 40.4968 210.431 45.2591 210.473 47.6195C210.39 48.9861 211.384 50.2284 212.75 50.4355L213.04 50.2698C212.874 49.8557 212.792 49.4416 212.833 49.0275C212.833 47.4538 214.075 44.7207 214.572 43.644C215.359 41.9876 216.767 39.5443 216.684 38.1778C216.643 37.5152 216.104 36.9355 215.028 36.9355C212.957 36.9355 210.887 38.9232 209.147 41.6563H209.065C209.644 40.4554 210.058 39.1716 210.307 37.8465C210.307 37.1425 209.934 36.9355 209.189 36.9355C208.485 37.0183 207.822 37.1425 207.16 37.3496C206.124 37.598 205.048 37.9293 203.888 38.1364C203.143 38.2192 202.894 38.3434 202.936 38.6333C203.101 42.7744 200.285 47.6195 198.38 47.6195C197.594 47.6195 197.387 47.0397 197.387 46.2115C197.387 43.3956 199.706 38.5919 202.025 37.8051C202.232 37.7637 202.397 37.7223 202.563 37.6808L202.853 36.894C202.107 36.9769 201.321 37.0183 200.575 37.0183H195.565C196.89 33.871 198.753 31.8005 201.486 31.6762C203.184 31.6348 204.302 32.256 204.426 33.2499C204.509 34.0781 204.219 34.8649 203.598 35.4447L203.805 35.6517C205.296 34.9477 206.331 33.7468 206.331 32.9186C206.331 31.6348 204.841 30.848 202.356 30.8894C199.25 30.8894 195.44 31.5934 192.749 37.1425C191.92 37.2253 191.175 37.598 190.637 38.2192L190.761 38.4677C191.258 38.3434 191.796 38.2606 192.293 38.302C191.92 39.2131 191.175 41.2008 190.43 43.1885C188.193 46.1701 185.916 47.5367 184.259 47.5367C183.348 47.5367 182.976 47.0812 182.976 46.2115C182.976 45.6318 183.058 45.052 183.224 44.5137C185.129 43.644 186.868 42.4431 188.359 40.9937C189.187 40.2483 189.726 39.2131 189.891 38.095C189.933 37.1011 189.311 36.687 188.152 36.687C186.206 36.8526 184.425 37.7637 183.141 39.2131C181.319 41.0351 180.201 43.4784 180.035 46.0873ZM187.365 37.8879C187.655 37.8879 187.903 38.095 187.903 38.3848C187.903 38.4263 187.903 38.4262 187.903 38.4677C187.903 40.0413 185.957 42.0704 183.431 43.5612C184.052 41.0766 185.833 37.8465 187.365 37.8879ZM222.813 35.0305C223.6 34.9477 224.221 34.368 224.387 33.5812C224.594 33.0428 224.304 32.4216 223.724 32.256C223.6 32.2146 223.476 32.2146 223.351 32.2146C222.565 32.2974 221.943 32.8772 221.778 33.664C221.612 34.2023 221.902 34.8235 222.44 34.9891C222.606 35.0305 222.689 35.0305 222.813 35.0305ZM197.345 57.6824C171.588 57.6824 145.457 58.0137 145.457 58.3864C145.457 58.7591 171.588 59.0904 197.345 59.0904C223.103 59.0904 249.233 58.7591 249.233 58.3864C249.233 58.0137 223.103 57.6824 197.345 57.6824ZM155.81 39.3373L155.976 39.1716C155.769 38.7161 155.644 38.2192 155.686 37.7223C155.769 34.368 159.33 32.4631 164.838 32.4631H167.902C165.914 33.5812 164.341 35.3618 163.471 37.4738C162.974 38.5919 160.655 44.5965 159.661 47.2882C158.46 50.4769 157.715 51.9677 156.762 52.4646L156.928 52.7545C159.578 52.9201 161.152 51.5535 162.187 49.0689C163.14 46.7085 164.465 42.9401 165.086 41.2422C167.115 35.8588 168.026 33.5812 169.641 32.4631H174.072C176.515 32.3802 177.551 31.8005 178.296 30.848L178.13 30.641C177.137 30.9723 176.101 31.0965 175.107 31.0137H164.092C157.922 31.0137 154.112 33.0428 153.491 36.0658C153.16 37.4738 153.988 38.8818 155.396 39.2131C155.52 39.2959 155.686 39.2959 155.81 39.3373ZM150.219 2.44006H151.545L154.65 11.4263H153.449L152.663 9.02441H149.267L148.522 11.4263H147.362L150.219 2.44006ZM152.331 8.11337L150.882 3.68239L149.557 8.11337H152.331ZM155.603 5.00755H156.514L156.555 5.46307C157.218 5.04896 158.005 4.80049 158.792 4.80049C159.371 4.75908 159.951 4.96613 160.407 5.38024C160.821 5.83576 160.986 6.45693 160.945 7.0781V11.4263H159.868V7.20233C159.91 6.82963 159.785 6.41552 159.537 6.12564C159.247 5.87718 158.874 5.75294 158.502 5.79435C157.88 5.79435 157.259 5.96 156.721 6.20846V11.4263H155.644V5.00755H155.603ZM164.92 3.06123C164.92 2.5643 165.169 2.35724 165.542 2.35724H165.624C165.997 2.35724 166.246 2.5643 166.246 3.06123C166.246 3.55816 165.997 3.76521 165.624 3.76521H165.583C165.169 3.76521 164.92 3.55816 164.92 3.06123ZM165.045 5.00755H166.121V11.4263H165.045V5.00755ZM167.819 5.00755H168.73L168.772 5.46307C169.434 5.04896 170.221 4.80049 171.008 4.80049C171.588 4.75908 172.167 4.96613 172.623 5.38024C173.037 5.83576 173.203 6.45693 173.161 7.0781V11.4263H172.084V7.20233C172.126 6.82963 172.002 6.41552 171.753 6.12564C171.463 5.87718 171.091 5.75294 170.718 5.79435C170.097 5.79435 169.476 5.96 168.937 6.20846V11.4263H167.861V5.00755H167.819ZM174.652 3.06123C174.652 2.5643 174.9 2.35724 175.273 2.35724H175.356C175.729 2.35724 175.977 2.5643 175.977 3.06123C175.977 3.55816 175.729 3.76521 175.356 3.76521H175.273C174.9 3.76521 174.652 3.55816 174.652 3.06123ZM174.776 5.00755H175.853V11.4263H174.776V5.00755ZM178.338 11.095C178.006 10.6394 177.882 10.0597 177.965 9.47994V5.79435H176.764V5.17319L177.923 5.00755V3.47534C178.255 3.35111 178.627 3.30969 179 3.26828V4.96613H180.698V5.75295H179V9.31429C179 9.93546 179.042 10.2253 179.207 10.4324C179.414 10.6394 179.745 10.7223 180.035 10.6809C180.367 10.6809 180.698 10.6394 180.988 10.598L181.029 11.3848C180.615 11.5091 180.16 11.5505 179.704 11.5505C179.249 11.6747 178.71 11.4677 178.338 11.095ZM182.023 3.06123C182.023 2.5643 182.272 2.35724 182.644 2.35724H182.727C183.1 2.35724 183.348 2.5643 183.348 3.06123C183.348 3.55816 183.1 3.76521 182.727 3.76521H182.644C182.272 3.76521 182.023 3.55816 182.023 3.06123ZM182.147 5.00755H183.224V11.4263H182.147V5.00755ZM185.088 10.9707C184.715 10.598 184.549 10.1011 184.591 9.56276C184.591 9.02442 184.798 8.52749 185.17 8.15479C185.792 7.69927 186.578 7.4508 187.365 7.53362H188.69V7.16092C188.732 6.74681 188.607 6.37411 188.359 6.08423C187.986 5.79436 187.489 5.67012 187.034 5.71153C186.454 5.71153 185.874 5.75295 185.295 5.87718L185.253 5.04896C185.874 4.88331 186.537 4.8419 187.199 4.8419C187.903 4.75908 188.649 5.00755 189.187 5.42166C189.643 5.87718 189.85 6.53975 189.767 7.16092V11.4263H188.897L188.815 11.0121C188.235 11.4263 187.531 11.6333 186.785 11.6333C186.123 11.6747 185.543 11.4263 185.088 10.9707ZM188.649 10.3082V8.40325H187.448C186.951 8.36184 186.454 8.48607 185.999 8.73454C185.75 8.94159 185.626 9.27288 185.626 9.60417C185.626 10.391 186.123 10.7223 186.951 10.7223C187.572 10.6809 188.111 10.5566 188.649 10.3082ZM192.127 11.095C191.796 10.6394 191.63 10.0597 191.713 9.47994V5.75295H190.595V5.13178L191.713 4.96613V3.43392C192.045 3.30969 192.417 3.26828 192.79 3.22687V4.92472H194.488V5.71153H192.79V9.27288C192.79 9.89405 192.831 10.1839 192.997 10.391C193.204 10.598 193.535 10.6809 193.825 10.6394C194.157 10.6394 194.488 10.598 194.778 10.5566L194.819 11.3434C194.405 11.4677 193.949 11.5091 193.494 11.5091C193.038 11.6747 192.542 11.4677 192.127 11.095ZM195.813 3.06123C195.813 2.5643 196.061 2.35724 196.476 2.35724H196.558C196.972 2.35724 197.18 2.5643 197.18 3.06123C197.18 3.55816 196.931 3.76521 196.558 3.76521H196.476C196.061 3.76521 195.813 3.55816 195.813 3.06123ZM195.937 5.00755H197.014V11.4263H195.937V5.00755ZM198.008 5.00755H199.126L200.907 10.3082L202.604 5.00755H203.722L201.445 11.4263H200.244L198.008 5.00755ZM205.089 10.8465C204.468 10.1011 204.178 9.19006 204.261 8.23761C204.261 5.96 205.379 4.8419 207.035 4.8419C208.816 4.8419 209.686 6.12564 209.686 8.23761V8.48607C209.686 8.56889 209.644 8.6103 209.52 8.6103H205.379C205.338 9.23147 205.545 9.81122 205.959 10.2667C206.414 10.6394 206.994 10.8051 207.615 10.7637C208.153 10.7637 208.692 10.6809 209.189 10.598L209.272 11.4263C208.65 11.5919 208.029 11.6747 207.367 11.6747C206.538 11.6747 205.71 11.3848 205.089 10.8465ZM208.609 7.78208C208.568 6.53975 208.112 5.67012 207.035 5.67012C205.959 5.67012 205.42 6.45693 205.379 7.78208H208.609ZM213.206 8.19619C213.206 6.04282 214.117 4.80049 216.146 4.80049C218.134 4.80049 219.086 6.04282 219.086 8.19619C219.086 10.3496 218.175 11.5919 216.146 11.5919C214.117 11.5919 213.206 10.3496 213.206 8.19619ZM217.885 8.19619C217.885 6.53975 217.43 5.71153 216.104 5.71153C214.779 5.71153 214.324 6.58116 214.324 8.19619C214.324 9.85264 214.779 10.7223 216.104 10.7223C217.43 10.7223 217.885 9.85264 217.885 8.19619ZM220.784 5.79435H219.624V5.17319L220.784 5.00755V4.13791C220.742 3.51675 220.908 2.937 221.239 2.44006C221.695 1.98454 222.316 1.77749 222.937 1.8189C223.31 1.8189 223.641 1.86031 224.014 1.94313V2.77135C223.765 2.77135 223.351 2.72994 223.103 2.72994C222.772 2.68853 222.399 2.81276 222.15 3.01981C221.943 3.22687 221.902 3.55816 221.902 4.13791V5.00755H223.6V5.79435H221.902V11.4263H220.825L220.784 5.79435ZM224.18 6.82963V6.78822C224.18 6.29129 224.428 6.08423 224.842 6.08423H224.925C225.298 6.08423 225.588 6.29129 225.588 6.78822V6.82963C225.588 7.32656 225.339 7.53362 224.925 7.53362H224.842C224.469 7.53362 224.18 7.32656 224.18 6.82963ZM224.18 10.8879V10.8465C224.18 10.3496 224.428 10.1425 224.842 10.1425H224.925C225.298 10.1425 225.588 10.3496 225.588 10.8465V10.8879C225.588 11.3848 225.339 11.5919 224.925 11.5919H224.842C224.469 11.5919 224.18 11.4263 224.18 10.8879Z" fill="#B6B7B7"/>
</svg>
