<svg width="87" height="71" viewBox="0 0 87 71" fill="none" xmlns="http://www.w3.org/2000/svg">
<path d="M45.1409 58.26H46.6071L48.5273 65.2805L50.3427 58.26H51.7741L53.8339 65.3504L55.6493 58.26H56.9759L54.6019 66.7824H52.9611L51.006 60.2509L49.2604 66.7824H47.5847L45.1409 58.26ZM58.2677 66.2236C57.8138 65.7346 57.5694 65.071 57.6043 64.3724C57.5694 63.6738 57.8487 63.0102 58.3375 62.5212C59.1754 61.8925 60.1878 61.6131 61.2002 61.7179H62.9807V61.194C62.9807 60.9145 62.9458 60.6002 62.876 60.3207C62.8062 60.1112 62.7014 59.9016 62.5618 59.727C62.0381 59.3428 61.4097 59.1681 60.7813 59.238C60.0132 59.238 59.2452 59.3078 58.4771 59.4475L58.4073 58.3298C59.2452 58.1203 60.118 58.0155 60.9908 58.0155C61.9334 57.9456 62.9109 58.2251 63.6441 58.7839C63.9234 59.0633 64.0979 59.3777 64.2376 59.727C64.3772 60.181 64.4121 60.6351 64.4121 61.1241V66.7475H63.2251L63.1902 66.2236C62.3872 66.7475 61.4795 67.0269 60.502 67.0269C59.6641 67.0968 58.8612 66.8174 58.2677 66.2236ZM61.9334 65.7346C62.3174 65.6298 62.6665 65.4901 63.0156 65.3155V62.7657H61.4446C60.7813 62.6959 60.118 62.8705 59.5245 63.1848C59.2103 63.4643 59.0008 63.8834 59.0357 64.3025C59.0008 64.7217 59.1754 65.1408 59.4896 65.4552C59.8736 65.7346 60.3274 65.8743 60.7813 65.8394C61.1653 65.8743 61.5494 65.8394 61.9334 65.7346ZM68.8808 70.9039C68.6015 70.869 68.3571 70.8341 68.0778 70.7992L67.9382 69.6815C68.4968 69.7513 69.0205 69.7863 69.579 69.7863C70.2075 69.8561 70.8359 69.6815 71.3595 69.2972C71.569 69.1226 71.7087 68.8781 71.7785 68.5987C71.8832 68.2145 71.9181 67.8303 71.9181 67.4461V66.2934C71.0803 66.7824 70.1376 67.0619 69.195 67.0619C68.3921 67.1317 67.624 66.8523 67.0654 66.3284C66.5417 65.6997 66.2973 64.8963 66.3672 64.093V58.2949H67.7986V63.9183C67.7986 64.1978 67.8335 64.5121 67.9033 64.7915C67.9731 65.0011 68.0778 65.2107 68.2175 65.3504C68.6015 65.6647 69.0903 65.8394 69.579 65.7695C69.9631 65.7695 70.382 65.6997 70.766 65.6298C71.185 65.525 71.569 65.3853 71.9181 65.2107V58.26H73.3495V67.4461C73.5939 69.1226 72.4418 70.6944 70.766 70.9738C70.4518 71.0087 70.1376 71.0087 69.8234 70.9738C69.4743 70.9738 69.195 70.9389 68.8808 70.9039ZM75.3395 58.26H76.5265L76.5963 58.9935C77.2596 58.3997 78.1324 58.0504 79.0052 58.0504C79.1798 58.0504 79.3892 58.0504 79.5638 58.1203V59.4126C79.3194 59.4126 79.075 59.3777 78.8307 59.3777C78.0975 59.3777 77.3644 59.5523 76.7709 59.9365V66.8174H75.3395V58.26ZM80.8555 66.2236C80.4017 65.7346 80.1573 65.071 80.1922 64.3724C80.1573 63.6738 80.4366 63.0102 80.9603 62.5212C81.7981 61.8925 82.8106 61.6131 83.823 61.7179H85.6035V61.194C85.6035 60.9145 85.5686 60.6002 85.4988 60.3207C85.429 60.1112 85.3242 59.9016 85.1497 59.727C84.626 59.3428 83.9976 59.1681 83.3692 59.238C82.6011 59.238 81.8331 59.3078 81.065 59.4475L80.9952 58.3298C81.8331 58.1203 82.7059 58.0155 83.5786 58.0155C84.5213 57.9456 85.4988 58.2251 86.2319 58.7839C86.5112 59.0633 86.6858 59.3777 86.8254 59.727C86.9651 60.181 87 60.6351 87 61.1241V66.7475H85.8479L85.7432 66.1537C84.9402 66.6776 84.0325 66.9571 83.055 66.9571C82.252 67.0968 81.449 66.8174 80.8555 66.2236ZM84.4864 65.7346C84.8704 65.6298 85.2195 65.4901 85.5686 65.3155V62.7657H83.9976C83.3343 62.6959 82.6709 62.8705 82.0774 63.1848C81.7632 63.4643 81.5538 63.8834 81.5887 64.3025C81.5538 64.7217 81.7283 65.1408 82.0425 65.4552C82.4266 65.7346 82.8804 65.8743 83.3343 65.8394C83.7183 65.8743 84.1023 65.8394 84.4864 65.7346ZM83.6485 49.4581L69.1252 0H58.4422L49.1906 31.54L39.939 0H29.256L19.9346 31.6797L10.6481 0H0L14.5233 49.4581H25.311L34.5626 17.953L43.8142 49.4581H54.4972L63.7488 17.953L73.0004 49.4581H83.6485Z" fill="#8C8CA2"/>
</svg>
